<svg width="1435" height="1411" viewBox="675.5 0 1434.5 1411" fill="none" xmlns="http://www.w3.org/2000/svg">
<defs>
  <clipPath id="fan-clip">
    <path d="M680.5 -2.97456e-05C769.865 -3.36519e-05 858.354 17.6016 940.916 51.7999C1023.48 85.9982 1098.5 136.123 1161.69 199.314C1224.88 262.504 1275 337.522 1309.2 420.084C1343.4 502.646 1361 591.135 1361 680.5L680.5 680.5L680.5 -2.97456e-05Z"/>
    <path d="M2105 730.5C2105 819.865 2087.4 908.354 2053.2 990.916C2019 1073.48 1968.88 1148.5 1905.69 1211.69C1842.5 1274.88 1767.48 1325 1684.92 1359.2C1602.35 1393.4 1513.86 1411 1424.5 1411L1424.5 730.5L2105 730.5Z"/>
    <path d="M1366.5 1411C1277.14 1411 1188.65 1393.4 1106.08 1359.2C1023.52 1325 948.504 1274.88 885.314 1211.69C822.123 1148.5 771.998 1073.48 737.8 990.916C703.602 908.354 686 819.864 686 730.5L1366.5 730.5L1366.5 1411Z"/>
    <path d="M1419 680.5C1419 591.135 1436.6 502.646 1470.8 420.084C1505 337.522 1555.12 262.504 1618.31 199.314C1681.5 136.124 1756.52 85.9983 1839.08 51.8C1921.65 17.6017 2010.14 5.47666e-05 2099.5 6.25791e-05L2099.5 680.5L1419 680.5Z"/>
  </clipPath>
</defs>
<g clip-path="url(#fan-clip)">
    <line x1="-3300.8" y1="2264.3" x2="-183.2" y2="-853.3" stroke="#eca400" stroke-width="2.2" stroke-opacity="0.4"/>
    <line x1="-3276.8" y1="2264.3" x2="-159.2" y2="-853.3" stroke="#eca301" stroke-width="2.2" stroke-opacity="0.4"/>
    <line x1="-3252.8" y1="2264.3" x2="-135.2" y2="-853.3" stroke="#eca301" stroke-width="2.2" stroke-opacity="0.4"/>
    <line x1="-3228.8" y1="2264.3" x2="-111.2" y2="-853.3" stroke="#eca202" stroke-width="2.2" stroke-opacity="0.4"/>
    <line x1="-3204.8" y1="2264.3" x2="-87.2" y2="-853.3" stroke="#eca203" stroke-width="2.2" stroke-opacity="0.4"/>
    <line x1="-3180.8" y1="2264.3" x2="-63.2" y2="-853.3" stroke="#eca104" stroke-width="2.2" stroke-opacity="0.4"/>
    <line x1="-3156.8" y1="2264.3" x2="-39.2" y2="-853.3" stroke="#eca104" stroke-width="2.2" stroke-opacity="0.4"/>
    <line x1="-3132.8" y1="2264.3" x2="-15.2" y2="-853.3" stroke="#eca005" stroke-width="2.2" stroke-opacity="0.4"/>
    <line x1="-3108.8" y1="2264.3" x2="8.8" y2="-853.3" stroke="#eca006" stroke-width="2.2" stroke-opacity="0.4"/>
    <line x1="-3084.8" y1="2264.3" x2="32.8" y2="-853.3" stroke="#ec9f07" stroke-width="2.2" stroke-opacity="0.4"/>
    <line x1="-3060.8" y1="2264.3" x2="56.8" y2="-853.3" stroke="#ec9f07" stroke-width="2.2" stroke-opacity="0.4"/>
    <line x1="-3036.8" y1="2264.3" x2="80.8" y2="-853.3" stroke="#ec9e08" stroke-width="2.2" stroke-opacity="0.4"/>
    <line x1="-3012.8" y1="2264.3" x2="104.8" y2="-853.3" stroke="#ec9e09" stroke-width="2.2" stroke-opacity="0.4"/>
    <line x1="-2988.8" y1="2264.3" x2="128.8" y2="-853.3" stroke="#ec9d0a" stroke-width="2.2" stroke-opacity="0.4"/>
    <line x1="-2964.8" y1="2264.3" x2="152.8" y2="-853.3" stroke="#eb9d0a" stroke-width="2.2" stroke-opacity="0.4"/>
    <line x1="-2940.8" y1="2264.3" x2="176.8" y2="-853.3" stroke="#eb9c0b" stroke-width="2.2" stroke-opacity="0.4"/>
    <line x1="-2916.8" y1="2264.3" x2="200.8" y2="-853.3" stroke="#eb9c0c" stroke-width="2.2" stroke-opacity="0.4"/>
    <line x1="-2892.8" y1="2264.3" x2="224.8" y2="-853.3" stroke="#eb9b0d" stroke-width="2.2" stroke-opacity="0.4"/>
    <line x1="-2868.8" y1="2264.3" x2="248.8" y2="-853.3" stroke="#eb9a0d" stroke-width="2.2" stroke-opacity="0.4"/>
    <line x1="-2844.8" y1="2264.3" x2="272.8" y2="-853.3" stroke="#eb9a0e" stroke-width="2.2" stroke-opacity="0.4"/>
    <line x1="-2820.8" y1="2264.3" x2="296.8" y2="-853.3" stroke="#eb990f" stroke-width="2.2" stroke-opacity="0.4"/>
    <line x1="-2796.8" y1="2264.3" x2="320.8" y2="-853.3" stroke="#eb990f" stroke-width="2.2" stroke-opacity="0.4"/>
    <line x1="-2772.8" y1="2264.3" x2="344.8" y2="-853.3" stroke="#eb9810" stroke-width="2.2" stroke-opacity="0.4"/>
    <line x1="-2748.8" y1="2264.3" x2="368.8" y2="-853.3" stroke="#eb9811" stroke-width="2.2" stroke-opacity="0.4"/>
    <line x1="-2724.8" y1="2264.3" x2="392.8" y2="-853.3" stroke="#eb9712" stroke-width="2.2" stroke-opacity="0.4"/>
    <line x1="-2700.8" y1="2264.3" x2="416.8" y2="-853.3" stroke="#eb9712" stroke-width="2.2" stroke-opacity="0.4"/>
    <line x1="-2676.8" y1="2264.3" x2="440.8" y2="-853.3" stroke="#eb9613" stroke-width="2.2" stroke-opacity="0.4"/>
    <line x1="-2652.8" y1="2264.3" x2="464.8" y2="-853.3" stroke="#eb9614" stroke-width="2.2" stroke-opacity="0.4"/>
    <line x1="-2628.8" y1="2264.3" x2="488.8" y2="-853.3" stroke="#eb9515" stroke-width="2.2" stroke-opacity="0.4"/>
    <line x1="-2604.8" y1="2264.3" x2="512.8" y2="-853.3" stroke="#eb9515" stroke-width="2.2" stroke-opacity="0.4"/>
    <line x1="-2580.8" y1="2264.3" x2="536.8" y2="-853.3" stroke="#eb9416" stroke-width="2.2" stroke-opacity="0.4"/>
    <line x1="-2556.8" y1="2264.3" x2="560.8" y2="-853.3" stroke="#eb9417" stroke-width="2.2" stroke-opacity="0.4"/>
    <line x1="-2532.8" y1="2264.3" x2="584.8" y2="-853.3" stroke="#eb9318" stroke-width="2.2" stroke-opacity="0.4"/>
    <line x1="-2508.8" y1="2264.3" x2="608.8" y2="-853.3" stroke="#eb9318" stroke-width="2.2" stroke-opacity="0.4"/>
    <line x1="-2484.8" y1="2264.3" x2="632.8" y2="-853.3" stroke="#eb9219" stroke-width="2.2" stroke-opacity="0.4"/>
    <line x1="-2460.8" y1="2264.3" x2="656.8" y2="-853.3" stroke="#eb911a" stroke-width="2.2" stroke-opacity="0.4"/>
    <line x1="-2436.8" y1="2264.3" x2="680.8" y2="-853.3" stroke="#eb911a" stroke-width="2.2" stroke-opacity="0.4"/>
    <line x1="-2412.8" y1="2264.3" x2="704.8" y2="-853.3" stroke="#eb901b" stroke-width="2.2" stroke-opacity="0.4"/>
    <line x1="-2388.8" y1="2264.3" x2="728.8" y2="-853.3" stroke="#eb901c" stroke-width="2.2" stroke-opacity="0.4"/>
    <line x1="-2364.8" y1="2264.3" x2="752.8" y2="-853.3" stroke="#eb8f1d" stroke-width="2.2" stroke-opacity="0.4"/>
    <line x1="-2340.8" y1="2264.3" x2="776.8" y2="-853.3" stroke="#ea8f1d" stroke-width="2.2" stroke-opacity="0.4"/>
    <line x1="-2316.8" y1="2264.3" x2="800.8" y2="-853.3" stroke="#ea8e1e" stroke-width="2.2" stroke-opacity="0.4"/>
    <line x1="-2292.8" y1="2264.3" x2="824.8" y2="-853.3" stroke="#ea8e1f" stroke-width="2.2" stroke-opacity="0.4"/>
    <line x1="-2268.8" y1="2264.3" x2="848.8" y2="-853.3" stroke="#ea8d20" stroke-width="2.2" stroke-opacity="0.4"/>
    <line x1="-2244.8" y1="2264.3" x2="872.8" y2="-853.3" stroke="#ea8d20" stroke-width="2.2" stroke-opacity="0.4"/>
    <line x1="-2220.8" y1="2264.3" x2="896.8" y2="-853.3" stroke="#ea8c21" stroke-width="2.2" stroke-opacity="0.4"/>
    <line x1="-2196.8" y1="2264.3" x2="920.8" y2="-853.3" stroke="#ea8c22" stroke-width="2.2" stroke-opacity="0.4"/>
    <line x1="-2172.8" y1="2264.3" x2="944.8" y2="-853.3" stroke="#ea8b23" stroke-width="2.2" stroke-opacity="0.4"/>
    <line x1="-2148.8" y1="2264.3" x2="968.8" y2="-853.3" stroke="#ea8b23" stroke-width="2.2" stroke-opacity="0.4"/>
    <line x1="-2124.8" y1="2264.3" x2="992.8" y2="-853.3" stroke="#ea8a24" stroke-width="2.2" stroke-opacity="0.4"/>
    <line x1="-2100.8" y1="2264.3" x2="1016.8" y2="-853.3" stroke="#ea8a25" stroke-width="2.2" stroke-opacity="0.4"/>
    <line x1="-2076.8" y1="2264.3" x2="1040.8" y2="-853.3" stroke="#ea8926" stroke-width="2.2" stroke-opacity="0.4"/>
    <line x1="-2052.8" y1="2264.3" x2="1064.8" y2="-853.3" stroke="#ea8926" stroke-width="2.2" stroke-opacity="0.4"/>
    <line x1="-2028.8" y1="2264.3" x2="1088.8" y2="-853.3" stroke="#ea8827" stroke-width="2.2" stroke-opacity="0.4"/>
    <line x1="-2004.8" y1="2264.3" x2="1112.8" y2="-853.3" stroke="#ea8728" stroke-width="2.2" stroke-opacity="0.4"/>
    <line x1="-1980.8" y1="2264.3" x2="1136.8" y2="-853.3" stroke="#ea8728" stroke-width="2.2" stroke-opacity="0.4"/>
    <line x1="-1956.8" y1="2264.3" x2="1160.8" y2="-853.3" stroke="#ea8629" stroke-width="2.2" stroke-opacity="0.4"/>
    <line x1="-1932.8" y1="2264.3" x2="1184.8" y2="-853.3" stroke="#ea862a" stroke-width="2.2" stroke-opacity="0.4"/>
    <line x1="-1908.8" y1="2264.3" x2="1208.8" y2="-853.3" stroke="#ea852b" stroke-width="2.2" stroke-opacity="0.4"/>
    <line x1="-1884.8" y1="2264.3" x2="1232.8" y2="-853.3" stroke="#ea852b" stroke-width="2.2" stroke-opacity="0.4"/>
    <line x1="-1860.8" y1="2264.3" x2="1256.8" y2="-853.3" stroke="#ea842c" stroke-width="2.2" stroke-opacity="0.4"/>
    <line x1="-1836.8" y1="2264.3" x2="1280.8" y2="-853.3" stroke="#ea842d" stroke-width="2.2" stroke-opacity="0.4"/>
    <line x1="-1812.8" y1="2264.3" x2="1304.8" y2="-853.3" stroke="#ea832e" stroke-width="2.2" stroke-opacity="0.4"/>
    <line x1="-1788.8" y1="2264.3" x2="1328.8" y2="-853.3" stroke="#ea832e" stroke-width="2.2" stroke-opacity="0.4"/>
    <line x1="-1764.8" y1="2264.3" x2="1352.8" y2="-853.3" stroke="#ea822f" stroke-width="2.2" stroke-opacity="0.4"/>
    <line x1="-1740.8" y1="2264.3" x2="1376.8" y2="-853.3" stroke="#ea8230" stroke-width="2.2" stroke-opacity="0.4"/>
    <line x1="-1716.8" y1="2264.3" x2="1400.8" y2="-853.3" stroke="#e98131" stroke-width="2.2" stroke-opacity="0.4"/>
    <line x1="-1692.8" y1="2264.3" x2="1424.8" y2="-853.3" stroke="#e98131" stroke-width="2.2" stroke-opacity="0.4"/>
    <line x1="-1668.8" y1="2264.3" x2="1448.8" y2="-853.3" stroke="#e98032" stroke-width="2.2" stroke-opacity="0.4"/>
    <line x1="-1644.8" y1="2264.3" x2="1472.8" y2="-853.3" stroke="#e98033" stroke-width="2.2" stroke-opacity="0.4"/>
    <line x1="-1620.8" y1="2264.3" x2="1496.8" y2="-853.3" stroke="#e97f33" stroke-width="2.2" stroke-opacity="0.4"/>
    <line x1="-1596.8" y1="2264.3" x2="1520.8" y2="-853.3" stroke="#e97e34" stroke-width="2.2" stroke-opacity="0.4"/>
    <line x1="-1572.8" y1="2264.3" x2="1544.8" y2="-853.3" stroke="#e97e35" stroke-width="2.2" stroke-opacity="0.4"/>
    <line x1="-1548.8" y1="2264.3" x2="1568.8" y2="-853.3" stroke="#e97d36" stroke-width="2.2" stroke-opacity="0.4"/>
    <line x1="-1524.8" y1="2264.3" x2="1592.8" y2="-853.3" stroke="#e97d36" stroke-width="2.2" stroke-opacity="0.4"/>
    <line x1="-1500.8" y1="2264.3" x2="1616.8" y2="-853.3" stroke="#e97c37" stroke-width="2.2" stroke-opacity="0.4"/>
    <line x1="-1476.8" y1="2264.3" x2="1640.8" y2="-853.3" stroke="#e97c38" stroke-width="2.2" stroke-opacity="0.4"/>
    <line x1="-1452.8" y1="2264.3" x2="1664.8" y2="-853.3" stroke="#e97b39" stroke-width="2.2" stroke-opacity="0.4"/>
    <line x1="-1428.8" y1="2264.3" x2="1688.8" y2="-853.3" stroke="#e97b39" stroke-width="2.2" stroke-opacity="0.4"/>
    <line x1="-1404.8" y1="2264.3" x2="1712.8" y2="-853.3" stroke="#e97a3a" stroke-width="2.2" stroke-opacity="0.4"/>
    <line x1="-1380.8" y1="2264.3" x2="1736.8" y2="-853.3" stroke="#e97a3b" stroke-width="2.2" stroke-opacity="0.4"/>
    <line x1="-1356.8" y1="2264.3" x2="1760.8" y2="-853.3" stroke="#e9793c" stroke-width="2.2" stroke-opacity="0.4"/>
    <line x1="-1332.8" y1="2264.3" x2="1784.8" y2="-853.3" stroke="#e9793c" stroke-width="2.2" stroke-opacity="0.4"/>
    <line x1="-1308.8" y1="2264.3" x2="1808.8" y2="-853.3" stroke="#e9783d" stroke-width="2.2" stroke-opacity="0.4"/>
    <line x1="-1284.8" y1="2264.3" x2="1832.8" y2="-853.3" stroke="#e9783e" stroke-width="2.2" stroke-opacity="0.4"/>
    <line x1="-1260.8" y1="2264.3" x2="1856.8" y2="-853.3" stroke="#e9773f" stroke-width="2.2" stroke-opacity="0.4"/>
    <line x1="-1236.8" y1="2264.3" x2="1880.8" y2="-853.3" stroke="#e9773f" stroke-width="2.2" stroke-opacity="0.4"/>
    <line x1="-1212.8" y1="2264.3" x2="1904.8" y2="-853.3" stroke="#e97640" stroke-width="2.2" stroke-opacity="0.4"/>
    <line x1="-1188.8" y1="2264.3" x2="1928.8" y2="-853.3" stroke="#e97541" stroke-width="2.2" stroke-opacity="0.4"/>
    <line x1="-1164.8" y1="2264.3" x2="1952.8" y2="-853.3" stroke="#e97541" stroke-width="2.2" stroke-opacity="0.4"/>
    <line x1="-1140.8" y1="2264.3" x2="1976.8" y2="-853.3" stroke="#e97442" stroke-width="2.2" stroke-opacity="0.4"/>
    <line x1="-1116.8" y1="2264.3" x2="2000.8" y2="-853.3" stroke="#e97443" stroke-width="2.2" stroke-opacity="0.4"/>
    <line x1="-1092.8" y1="2264.3" x2="2024.8" y2="-853.3" stroke="#e87344" stroke-width="2.2" stroke-opacity="0.4"/>
    <line x1="-1068.8" y1="2264.3" x2="2048.8" y2="-853.3" stroke="#e87344" stroke-width="2.2" stroke-opacity="0.4"/>
    <line x1="-1044.8" y1="2264.3" x2="2072.8" y2="-853.3" stroke="#e87245" stroke-width="2.2" stroke-opacity="0.4"/>
    <line x1="-1020.8" y1="2264.3" x2="2096.8" y2="-853.3" stroke="#e87246" stroke-width="2.2" stroke-opacity="0.4"/>
    <line x1="-996.8" y1="2264.3" x2="2120.8" y2="-853.3" stroke="#e87147" stroke-width="2.2" stroke-opacity="0.4"/>
    <line x1="-972.8" y1="2264.3" x2="2144.8" y2="-853.3" stroke="#e87147" stroke-width="2.2" stroke-opacity="0.4"/>
    <line x1="-948.8" y1="2264.3" x2="2168.8" y2="-853.3" stroke="#e87048" stroke-width="2.2" stroke-opacity="0.4"/>
    <line x1="-924.8" y1="2264.3" x2="2192.8" y2="-853.3" stroke="#e87049" stroke-width="2.2" stroke-opacity="0.4"/>
    <line x1="-900.8" y1="2264.3" x2="2216.8" y2="-853.3" stroke="#e86f4a" stroke-width="2.2" stroke-opacity="0.4"/>
    <line x1="-876.8" y1="2264.3" x2="2240.8" y2="-853.3" stroke="#e86f4a" stroke-width="2.2" stroke-opacity="0.4"/>
    <line x1="-852.8" y1="2264.3" x2="2264.8" y2="-853.3" stroke="#e86e4b" stroke-width="2.2" stroke-opacity="0.4"/>
    <line x1="-828.8" y1="2264.3" x2="2288.8" y2="-853.3" stroke="#e86e4c" stroke-width="2.2" stroke-opacity="0.4"/>
    <line x1="-804.8" y1="2264.3" x2="2312.8" y2="-853.3" stroke="#e86d4d" stroke-width="2.2" stroke-opacity="0.4"/>
    <line x1="-780.8" y1="2264.3" x2="2336.8" y2="-853.3" stroke="#e86c4d" stroke-width="2.2" stroke-opacity="0.4"/>
    <line x1="-756.8" y1="2264.3" x2="2360.8" y2="-853.3" stroke="#e86c4e" stroke-width="2.2" stroke-opacity="0.4"/>
    <line x1="-732.8" y1="2264.3" x2="2384.8" y2="-853.3" stroke="#e86b4f" stroke-width="2.2" stroke-opacity="0.4"/>
    <line x1="-708.8" y1="2264.3" x2="2408.8" y2="-853.3" stroke="#e86b4f" stroke-width="2.2" stroke-opacity="0.4"/>
    <line x1="-684.8" y1="2264.3" x2="2432.8" y2="-853.3" stroke="#e86a50" stroke-width="2.2" stroke-opacity="0.4"/>
    <line x1="-660.8" y1="2264.3" x2="2456.8" y2="-853.3" stroke="#e86a51" stroke-width="2.2" stroke-opacity="0.4"/>
    <line x1="-636.8" y1="2264.3" x2="2480.8" y2="-853.3" stroke="#e86952" stroke-width="2.2" stroke-opacity="0.4"/>
    <line x1="-612.8" y1="2264.3" x2="2504.8" y2="-853.3" stroke="#e86952" stroke-width="2.2" stroke-opacity="0.4"/>
    <line x1="-588.8" y1="2264.3" x2="2528.8" y2="-853.3" stroke="#e86853" stroke-width="2.2" stroke-opacity="0.4"/>
    <line x1="-564.8" y1="2264.3" x2="2552.8" y2="-853.3" stroke="#e86854" stroke-width="2.2" stroke-opacity="0.4"/>
    <line x1="-540.8" y1="2264.3" x2="2576.8" y2="-853.3" stroke="#e86755" stroke-width="2.2" stroke-opacity="0.4"/>
    <line x1="-516.8" y1="2264.3" x2="2600.8" y2="-853.3" stroke="#e86755" stroke-width="2.2" stroke-opacity="0.4"/>
    <line x1="-492.8" y1="2264.3" x2="2624.8" y2="-853.3" stroke="#e86656" stroke-width="2.2" stroke-opacity="0.4"/>
    <line x1="-468.8" y1="2264.3" x2="2648.8" y2="-853.3" stroke="#e76657" stroke-width="2.2" stroke-opacity="0.4"/>
    <line x1="-444.8" y1="2264.3" x2="2672.8" y2="-853.3" stroke="#e76558" stroke-width="2.2" stroke-opacity="0.4"/>
    <line x1="-420.8" y1="2264.3" x2="2696.8" y2="-853.3" stroke="#e76558" stroke-width="2.2" stroke-opacity="0.4"/>
    <line x1="-396.8" y1="2264.3" x2="2720.8" y2="-853.3" stroke="#e76459" stroke-width="2.2" stroke-opacity="0.4"/>
    <line x1="-372.8" y1="2264.3" x2="2744.8" y2="-853.3" stroke="#e7635a" stroke-width="2.2" stroke-opacity="0.4"/>
    <line x1="-348.8" y1="2264.3" x2="2768.8" y2="-853.3" stroke="#e7635a" stroke-width="2.2" stroke-opacity="0.4"/>
    <line x1="-324.8" y1="2264.3" x2="2792.8" y2="-853.3" stroke="#e7625b" stroke-width="2.2" stroke-opacity="0.4"/>
    <line x1="-300.8" y1="2264.3" x2="2816.8" y2="-853.3" stroke="#e7625c" stroke-width="2.2" stroke-opacity="0.4"/>
    <line x1="-276.8" y1="2264.3" x2="2840.8" y2="-853.3" stroke="#e7615d" stroke-width="2.2" stroke-opacity="0.4"/>
    <line x1="-252.8" y1="2264.3" x2="2864.8" y2="-853.3" stroke="#e7615d" stroke-width="2.2" stroke-opacity="0.4"/>
    <line x1="-228.8" y1="2264.3" x2="2888.8" y2="-853.3" stroke="#e7605e" stroke-width="2.2" stroke-opacity="0.4"/>
    <line x1="-204.8" y1="2264.3" x2="2912.8" y2="-853.3" stroke="#e7605f" stroke-width="2.2" stroke-opacity="0.4"/>
    <line x1="-180.8" y1="2264.3" x2="2936.8" y2="-853.3" stroke="#e75f60" stroke-width="2.2" stroke-opacity="0.4"/>
    <line x1="-156.8" y1="2264.3" x2="2960.8" y2="-853.3" stroke="#e75f60" stroke-width="2.2" stroke-opacity="0.4"/>
    <line x1="-132.8" y1="2264.3" x2="2984.8" y2="-853.3" stroke="#e75e60" stroke-width="2.2" stroke-opacity="0.4"/>
    <line x1="-108.8" y1="2264.3" x2="3008.8" y2="-853.3" stroke="#e75e60" stroke-width="2.2" stroke-opacity="0.4"/>
    <line x1="-84.8" y1="2264.3" x2="3032.8" y2="-853.3" stroke="#e65d60" stroke-width="2.2" stroke-opacity="0.4"/>
    <line x1="-60.8" y1="2264.3" x2="3056.8" y2="-853.3" stroke="#e65d61" stroke-width="2.2" stroke-opacity="0.4"/>
    <line x1="-36.8" y1="2264.3" x2="3080.8" y2="-853.3" stroke="#e65c61" stroke-width="2.2" stroke-opacity="0.4"/>
    <line x1="-12.8" y1="2264.3" x2="3104.8" y2="-853.3" stroke="#e65c61" stroke-width="2.2" stroke-opacity="0.4"/>
    <line x1="11.2" y1="2264.3" x2="3128.8" y2="-853.3" stroke="#e65b61" stroke-width="2.2" stroke-opacity="0.4"/>
    <line x1="35.2" y1="2264.3" x2="3152.8" y2="-853.3" stroke="#e65b61" stroke-width="2.2" stroke-opacity="0.4"/>
    <line x1="59.2" y1="2264.3" x2="3176.8" y2="-853.3" stroke="#e65a61" stroke-width="2.2" stroke-opacity="0.4"/>
    <line x1="83.2" y1="2264.3" x2="3200.8" y2="-853.3" stroke="#e55a61" stroke-width="2.2" stroke-opacity="0.4"/>
    <line x1="107.2" y1="2264.3" x2="3224.8" y2="-853.3" stroke="#e55961" stroke-width="2.2" stroke-opacity="0.4"/>
    <line x1="131.2" y1="2264.3" x2="3248.8" y2="-853.3" stroke="#e55962" stroke-width="2.2" stroke-opacity="0.4"/>
    <line x1="155.2" y1="2264.3" x2="3272.8" y2="-853.3" stroke="#e55862" stroke-width="2.2" stroke-opacity="0.4"/>
    <line x1="179.2" y1="2264.3" x2="3296.8" y2="-853.3" stroke="#e55862" stroke-width="2.2" stroke-opacity="0.4"/>
    <line x1="203.2" y1="2264.3" x2="3320.8" y2="-853.3" stroke="#e55762" stroke-width="2.2" stroke-opacity="0.4"/>
    <line x1="227.2" y1="2264.3" x2="3344.8" y2="-853.3" stroke="#e55762" stroke-width="2.2" stroke-opacity="0.4"/>
    <line x1="251.2" y1="2264.3" x2="3368.8" y2="-853.3" stroke="#e45662" stroke-width="2.2" stroke-opacity="0.4"/>
    <line x1="275.2" y1="2264.3" x2="3392.8" y2="-853.3" stroke="#e45662" stroke-width="2.2" stroke-opacity="0.4"/>
    <line x1="299.2" y1="2264.3" x2="3416.8" y2="-853.3" stroke="#e45562" stroke-width="2.2" stroke-opacity="0.4"/>
    <line x1="323.2" y1="2264.3" x2="3440.8" y2="-853.3" stroke="#e45563" stroke-width="2.2" stroke-opacity="0.4"/>
    <line x1="347.2" y1="2264.3" x2="3464.8" y2="-853.3" stroke="#e45463" stroke-width="2.2" stroke-opacity="0.4"/>
    <line x1="371.2" y1="2264.3" x2="3488.8" y2="-853.3" stroke="#e45463" stroke-width="2.2" stroke-opacity="0.4"/>
    <line x1="395.2" y1="2264.3" x2="3512.8" y2="-853.3" stroke="#e45363" stroke-width="2.2" stroke-opacity="0.4"/>
    <line x1="419.2" y1="2264.3" x2="3536.8" y2="-853.3" stroke="#e35363" stroke-width="2.2" stroke-opacity="0.4"/>
    <line x1="443.2" y1="2264.3" x2="3560.8" y2="-853.3" stroke="#e35263" stroke-width="2.2" stroke-opacity="0.4"/>
    <line x1="467.2" y1="2264.3" x2="3584.8" y2="-853.3" stroke="#e35263" stroke-width="2.2" stroke-opacity="0.4"/>
    <line x1="491.2" y1="2264.3" x2="3608.8" y2="-853.3" stroke="#e35163" stroke-width="2.2" stroke-opacity="0.4"/>
    <line x1="515.2" y1="2264.3" x2="3632.8" y2="-853.3" stroke="#e35163" stroke-width="2.2" stroke-opacity="0.4"/>
    <line x1="539.2" y1="2264.3" x2="3656.8" y2="-853.3" stroke="#e35064" stroke-width="2.2" stroke-opacity="0.4"/>
    <line x1="563.2" y1="2264.3" x2="3680.8" y2="-853.3" stroke="#e35064" stroke-width="2.2" stroke-opacity="0.4"/>
    <line x1="587.2" y1="2264.3" x2="3704.8" y2="-853.3" stroke="#e24f64" stroke-width="2.2" stroke-opacity="0.4"/>
    <line x1="611.2" y1="2264.3" x2="3728.8" y2="-853.3" stroke="#e24f64" stroke-width="2.2" stroke-opacity="0.4"/>
    <line x1="635.2" y1="2264.3" x2="3752.8" y2="-853.3" stroke="#e24e64" stroke-width="2.2" stroke-opacity="0.4"/>
    <line x1="659.2" y1="2264.3" x2="3776.8" y2="-853.3" stroke="#e24e64" stroke-width="2.2" stroke-opacity="0.4"/>
    <line x1="683.2" y1="2264.3" x2="3800.8" y2="-853.3" stroke="#e24d64" stroke-width="2.2" stroke-opacity="0.4"/>
    <line x1="707.2" y1="2264.3" x2="3824.8" y2="-853.3" stroke="#e24d64" stroke-width="2.2" stroke-opacity="0.4"/>
    <line x1="731.2" y1="2264.3" x2="3848.8" y2="-853.3" stroke="#e24c65" stroke-width="2.2" stroke-opacity="0.4"/>
    <line x1="755.2" y1="2264.3" x2="3872.8" y2="-853.3" stroke="#e14c65" stroke-width="2.2" stroke-opacity="0.4"/>
    <line x1="779.2" y1="2264.3" x2="3896.8" y2="-853.3" stroke="#e14b65" stroke-width="2.2" stroke-opacity="0.4"/>
    <line x1="803.2" y1="2264.3" x2="3920.8" y2="-853.3" stroke="#e14b65" stroke-width="2.2" stroke-opacity="0.4"/>
    <line x1="827.2" y1="2264.3" x2="3944.8" y2="-853.3" stroke="#e14a65" stroke-width="2.2" stroke-opacity="0.4"/>
    <line x1="851.2" y1="2264.3" x2="3968.8" y2="-853.3" stroke="#e14a65" stroke-width="2.2" stroke-opacity="0.4"/>
    <line x1="875.2" y1="2264.3" x2="3992.8" y2="-853.3" stroke="#e14965" stroke-width="2.2" stroke-opacity="0.4"/>
    <line x1="899.2" y1="2264.3" x2="4016.8" y2="-853.3" stroke="#e14965" stroke-width="2.2" stroke-opacity="0.4"/>
    <line x1="923.2" y1="2264.3" x2="4040.8" y2="-853.3" stroke="#e04866" stroke-width="2.2" stroke-opacity="0.4"/>
    <line x1="947.2" y1="2264.3" x2="4064.8" y2="-853.3" stroke="#e04866" stroke-width="2.2" stroke-opacity="0.4"/>
    <line x1="971.2" y1="2264.3" x2="4088.8" y2="-853.3" stroke="#e04766" stroke-width="2.2" stroke-opacity="0.4"/>
    <line x1="995.2" y1="2264.3" x2="4112.8" y2="-853.3" stroke="#e04766" stroke-width="2.2" stroke-opacity="0.4"/>
    <line x1="1019.2" y1="2264.3" x2="4136.8" y2="-853.3" stroke="#e04666" stroke-width="2.2" stroke-opacity="0.4"/>
    <line x1="1043.2" y1="2264.3" x2="4160.8" y2="-853.3" stroke="#e04666" stroke-width="2.2" stroke-opacity="0.4"/>
    <line x1="1067.2" y1="2264.3" x2="4184.8" y2="-853.3" stroke="#e04566" stroke-width="2.2" stroke-opacity="0.4"/>
    <line x1="1091.2" y1="2264.3" x2="4208.8" y2="-853.3" stroke="#df4566" stroke-width="2.2" stroke-opacity="0.4"/>
    <line x1="1115.2" y1="2264.3" x2="4232.8" y2="-853.3" stroke="#df4467" stroke-width="2.2" stroke-opacity="0.4"/>
    <line x1="1139.2" y1="2264.3" x2="4256.8" y2="-853.3" stroke="#df4467" stroke-width="2.2" stroke-opacity="0.4"/>
    <line x1="1163.2" y1="2264.3" x2="4280.8" y2="-853.3" stroke="#df4367" stroke-width="2.2" stroke-opacity="0.4"/>
    <line x1="1187.2" y1="2264.3" x2="4304.8" y2="-853.3" stroke="#df4367" stroke-width="2.2" stroke-opacity="0.4"/>
    <line x1="1211.2" y1="2264.3" x2="4328.8" y2="-853.3" stroke="#df4267" stroke-width="2.2" stroke-opacity="0.4"/>
    <line x1="1235.2" y1="2264.3" x2="4352.8" y2="-853.3" stroke="#de4267" stroke-width="2.2" stroke-opacity="0.4"/>
    <line x1="1259.2" y1="2264.3" x2="4376.8" y2="-853.3" stroke="#de4167" stroke-width="2.2" stroke-opacity="0.4"/>
    <line x1="1283.2" y1="2264.3" x2="4400.8" y2="-853.3" stroke="#de4167" stroke-width="2.2" stroke-opacity="0.4"/>
    <line x1="1307.2" y1="2264.3" x2="4424.8" y2="-853.3" stroke="#de4068" stroke-width="2.2" stroke-opacity="0.4"/>
    <line x1="1331.2" y1="2264.3" x2="4448.8" y2="-853.3" stroke="#de4068" stroke-width="2.2" stroke-opacity="0.4"/>
    <line x1="1355.2" y1="2264.3" x2="4472.8" y2="-853.3" stroke="#de3f68" stroke-width="2.2" stroke-opacity="0.4"/>
    <line x1="1379.2" y1="2264.3" x2="4496.8" y2="-853.3" stroke="#de3f68" stroke-width="2.2" stroke-opacity="0.4"/>
    <line x1="1403.2" y1="2264.3" x2="4520.8" y2="-853.3" stroke="#dd3e68" stroke-width="2.2" stroke-opacity="0.4"/>
    <line x1="1427.2" y1="2264.3" x2="4544.8" y2="-853.3" stroke="#dd3e68" stroke-width="2.2" stroke-opacity="0.4"/>
    <line x1="1451.2" y1="2264.3" x2="4568.8" y2="-853.3" stroke="#dd3d68" stroke-width="2.2" stroke-opacity="0.4"/>
    <line x1="1475.2" y1="2264.3" x2="4592.8" y2="-853.3" stroke="#dd3d68" stroke-width="2.2" stroke-opacity="0.4"/>
    <line x1="1499.2" y1="2264.3" x2="4616.8" y2="-853.3" stroke="#dd3c69" stroke-width="2.2" stroke-opacity="0.4"/>
    <line x1="1523.2" y1="2264.3" x2="4640.8" y2="-853.3" stroke="#dd3c69" stroke-width="2.2" stroke-opacity="0.4"/>
    <line x1="1547.2" y1="2264.3" x2="4664.8" y2="-853.3" stroke="#dd3b69" stroke-width="2.2" stroke-opacity="0.4"/>
    <line x1="1571.2" y1="2264.3" x2="4688.8" y2="-853.3" stroke="#dc3b69" stroke-width="2.2" stroke-opacity="0.4"/>
    <line x1="1595.2" y1="2264.3" x2="4712.8" y2="-853.3" stroke="#dc3a69" stroke-width="2.2" stroke-opacity="0.4"/>
    <line x1="1619.2" y1="2264.3" x2="4736.8" y2="-853.3" stroke="#dc3a69" stroke-width="2.2" stroke-opacity="0.4"/>
    <line x1="1643.2" y1="2264.3" x2="4760.8" y2="-853.3" stroke="#dc3969" stroke-width="2.2" stroke-opacity="0.4"/>
    <line x1="1667.2" y1="2264.3" x2="4784.8" y2="-853.3" stroke="#dc3969" stroke-width="2.2" stroke-opacity="0.4"/>
    <line x1="1691.2" y1="2264.3" x2="4808.8" y2="-853.3" stroke="#dc386a" stroke-width="2.2" stroke-opacity="0.4"/>
    <line x1="1715.2" y1="2264.3" x2="4832.8" y2="-853.3" stroke="#dc386a" stroke-width="2.2" stroke-opacity="0.4"/>
    <line x1="1739.2" y1="2264.3" x2="4856.8" y2="-853.3" stroke="#db376a" stroke-width="2.2" stroke-opacity="0.4"/>
    <line x1="1763.2" y1="2264.3" x2="4880.8" y2="-853.3" stroke="#db376a" stroke-width="2.2" stroke-opacity="0.4"/>
    <line x1="1787.2" y1="2264.3" x2="4904.8" y2="-853.3" stroke="#db366a" stroke-width="2.2" stroke-opacity="0.4"/>
    <line x1="1811.2" y1="2264.3" x2="4928.8" y2="-853.3" stroke="#db366a" stroke-width="2.2" stroke-opacity="0.4"/>
    <line x1="1835.2" y1="2264.3" x2="4952.8" y2="-853.3" stroke="#db356a" stroke-width="2.2" stroke-opacity="0.4"/>
    <line x1="1859.2" y1="2264.3" x2="4976.8" y2="-853.3" stroke="#db356a" stroke-width="2.2" stroke-opacity="0.4"/>
    <line x1="1883.2" y1="2264.3" x2="5000.8" y2="-853.3" stroke="#db346a" stroke-width="2.2" stroke-opacity="0.4"/>
    <line x1="1907.2" y1="2264.3" x2="5024.8" y2="-853.3" stroke="#da346b" stroke-width="2.2" stroke-opacity="0.4"/>
    <line x1="1931.2" y1="2264.3" x2="5048.8" y2="-853.3" stroke="#da336b" stroke-width="2.2" stroke-opacity="0.4"/>
    <line x1="1955.2" y1="2264.3" x2="5072.8" y2="-853.3" stroke="#da336b" stroke-width="2.2" stroke-opacity="0.4"/>
    <line x1="1979.2" y1="2264.3" x2="5096.8" y2="-853.3" stroke="#da326b" stroke-width="2.2" stroke-opacity="0.4"/>
    <line x1="2003.2" y1="2264.3" x2="5120.8" y2="-853.3" stroke="#da326b" stroke-width="2.2" stroke-opacity="0.4"/>
    <line x1="2027.2" y1="2264.3" x2="5144.8" y2="-853.3" stroke="#da316b" stroke-width="2.2" stroke-opacity="0.4"/>
    <line x1="2051.2" y1="2264.3" x2="5168.8" y2="-853.3" stroke="#da316b" stroke-width="2.2" stroke-opacity="0.4"/>
    <line x1="2075.2" y1="2264.3" x2="5192.8" y2="-853.3" stroke="#d9306b" stroke-width="2.2" stroke-opacity="0.4"/>
    <line x1="2099.2" y1="2264.3" x2="5216.8" y2="-853.3" stroke="#d9306c" stroke-width="2.2" stroke-opacity="0.4"/>
    <line x1="2123.2" y1="2264.3" x2="5240.8" y2="-853.3" stroke="#d92f6c" stroke-width="2.2" stroke-opacity="0.4"/>
    <line x1="2147.2" y1="2264.3" x2="5264.8" y2="-853.3" stroke="#d92f6c" stroke-width="2.2" stroke-opacity="0.4"/>
    <line x1="2171.2" y1="2264.3" x2="5288.8" y2="-853.3" stroke="#d92e6c" stroke-width="2.2" stroke-opacity="0.4"/>
    <line x1="2195.2" y1="2264.3" x2="5312.8" y2="-853.3" stroke="#d92e6c" stroke-width="2.2" stroke-opacity="0.4"/>
    <line x1="2219.2" y1="2264.3" x2="5336.8" y2="-853.3" stroke="#d92d6c" stroke-width="2.2" stroke-opacity="0.4"/>
    <line x1="2243.2" y1="2264.3" x2="5360.8" y2="-853.3" stroke="#d82d6c" stroke-width="2.2" stroke-opacity="0.4"/>
    <line x1="2267.2" y1="2264.3" x2="5384.8" y2="-853.3" stroke="#d82c6c" stroke-width="2.2" stroke-opacity="0.4"/>
    <line x1="2291.2" y1="2264.3" x2="5408.8" y2="-853.3" stroke="#d82c6d" stroke-width="2.2" stroke-opacity="0.4"/>
    <line x1="2315.2" y1="2264.3" x2="5432.8" y2="-853.3" stroke="#d82b6d" stroke-width="2.2" stroke-opacity="0.4"/>
    <line x1="2339.2" y1="2264.3" x2="5456.8" y2="-853.3" stroke="#d82b6d" stroke-width="2.2" stroke-opacity="0.4"/>
    <line x1="2363.2" y1="2264.3" x2="5480.8" y2="-853.3" stroke="#d82a6d" stroke-width="2.2" stroke-opacity="0.4"/>
    <line x1="2387.2" y1="2264.3" x2="5504.8" y2="-853.3" stroke="#d72a6d" stroke-width="2.2" stroke-opacity="0.4"/>
    <line x1="2411.2" y1="2264.3" x2="5528.8" y2="-853.3" stroke="#d7296d" stroke-width="2.2" stroke-opacity="0.4"/>
    <line x1="2435.2" y1="2264.3" x2="5552.8" y2="-853.3" stroke="#d7296d" stroke-width="2.2" stroke-opacity="0.4"/>
    <line x1="2459.2" y1="2264.3" x2="5576.8" y2="-853.3" stroke="#d7286d" stroke-width="2.2" stroke-opacity="0.4"/>
    <line x1="2483.2" y1="2264.3" x2="5600.8" y2="-853.3" stroke="#d7286e" stroke-width="2.2" stroke-opacity="0.4"/>
    <line x1="2507.2" y1="2264.3" x2="5624.8" y2="-853.3" stroke="#d7276e" stroke-width="2.2" stroke-opacity="0.4"/>
    <line x1="2531.2" y1="2264.3" x2="5648.8" y2="-853.3" stroke="#d7276e" stroke-width="2.2" stroke-opacity="0.4"/>
    <line x1="2555.2" y1="2264.3" x2="5672.8" y2="-853.3" stroke="#d6266e" stroke-width="2.2" stroke-opacity="0.4"/>
    <line x1="2579.2" y1="2264.3" x2="5696.8" y2="-853.3" stroke="#d6266e" stroke-width="2.2" stroke-opacity="0.4"/>
    <line x1="2603.2" y1="2264.3" x2="5720.8" y2="-853.3" stroke="#d6256e" stroke-width="2.2" stroke-opacity="0.4"/>
    <line x1="2627.2" y1="2264.3" x2="5744.8" y2="-853.3" stroke="#d6256e" stroke-width="2.2" stroke-opacity="0.4"/>
    <line x1="2651.2" y1="2264.3" x2="5768.8" y2="-853.3" stroke="#d6246e" stroke-width="2.2" stroke-opacity="0.4"/>
    <line x1="2675.2" y1="2264.3" x2="5792.8" y2="-853.3" stroke="#d6246f" stroke-width="2.2" stroke-opacity="0.4"/>
    <line x1="2699.2" y1="2264.3" x2="5816.8" y2="-853.3" stroke="#d6236f" stroke-width="2.2" stroke-opacity="0.4"/>
    <line x1="2723.2" y1="2264.3" x2="5840.8" y2="-853.3" stroke="#d5236f" stroke-width="2.2" stroke-opacity="0.4"/>
    <line x1="2747.2" y1="2264.3" x2="5864.8" y2="-853.3" stroke="#d5226f" stroke-width="2.2" stroke-opacity="0.4"/>
    <line x1="2771.2" y1="2264.3" x2="5888.8" y2="-853.3" stroke="#d5226f" stroke-width="2.2" stroke-opacity="0.4"/>
    <line x1="2795.2" y1="2264.3" x2="5912.8" y2="-853.3" stroke="#d5216f" stroke-width="2.2" stroke-opacity="0.4"/>
    <line x1="2819.2" y1="2264.3" x2="5936.8" y2="-853.3" stroke="#d5216f" stroke-width="2.2" stroke-opacity="0.4"/>
    <line x1="2843.2" y1="2264.3" x2="5960.8" y2="-853.3" stroke="#d5206f" stroke-width="2.2" stroke-opacity="0.4"/>
    <line x1="2867.2" y1="2264.3" x2="5984.8" y2="-853.3" stroke="#d52070" stroke-width="2.2" stroke-opacity="0.4"/>
    <line x1="2891.2" y1="2264.3" x2="6008.8" y2="-853.3" stroke="#d41f70" stroke-width="2.2" stroke-opacity="0.4"/>
    <line x1="2915.2" y1="2264.3" x2="6032.8" y2="-853.3" stroke="#d41f70" stroke-width="2.2" stroke-opacity="0.4"/>
    <line x1="2939.2" y1="2264.3" x2="6056.8" y2="-853.3" stroke="#d41e70" stroke-width="2.2" stroke-opacity="0.4"/>
    <line x1="2963.2" y1="2264.3" x2="6080.8" y2="-853.3" stroke="#d41e70" stroke-width="2.2" stroke-opacity="0.4"/>
</g>
</svg>