<svg width="1435" height="1411" viewBox="675.5 0 1434.5 1411" fill="none" xmlns="http://www.w3.org/2000/svg">
<defs>
  <clipPath id="fan-clip">
    <path d="M680.5 -2.97456e-05C769.865 -3.36519e-05 858.354 17.6016 940.916 51.7999C1023.48 85.9982 1098.5 136.123 1161.69 199.314C1224.88 262.504 1275 337.522 1309.2 420.084C1343.4 502.646 1361 591.135 1361 680.5L680.5 680.5L680.5 -2.97456e-05Z"/>
    <path d="M2105 730.5C2105 819.865 2087.4 908.354 2053.2 990.916C2019 1073.48 1968.88 1148.5 1905.69 1211.69C1842.5 1274.88 1767.48 1325 1684.92 1359.2C1602.35 1393.4 1513.86 1411 1424.5 1411L1424.5 730.5L2105 730.5Z"/>
    <path d="M1366.5 1411C1277.14 1411 1188.65 1393.4 1106.08 1359.2C1023.52 1325 948.504 1274.88 885.314 1211.69C822.123 1148.5 771.998 1073.48 737.8 990.916C703.602 908.354 686 819.864 686 730.5L1366.5 730.5L1366.5 1411Z"/>
    <path d="M1419 680.5C1419 591.135 1436.6 502.646 1470.8 420.084C1505 337.522 1555.12 262.504 1618.31 199.314C1681.5 136.124 1756.52 85.9983 1839.08 51.8C1921.65 17.6017 2010.14 5.47666e-05 2099.5 6.25791e-05L2099.5 680.5L1419 680.5Z"/>
  </clipPath>
</defs>
<g clip-path="url(#fan-clip)">
    <line x1="-3300.8" y1="2264.3" x2="-183.2" y2="-853.3" stroke="#f4a742" stroke-width="2.2" stroke-opacity="0.4"/>
    <line x1="-3276.8" y1="2264.3" x2="-159.2" y2="-853.3" stroke="#f3a642" stroke-width="2.2" stroke-opacity="0.4"/>
    <line x1="-3252.8" y1="2264.3" x2="-135.2" y2="-853.3" stroke="#f3a542" stroke-width="2.2" stroke-opacity="0.4"/>
    <line x1="-3228.8" y1="2264.3" x2="-111.2" y2="-853.3" stroke="#f3a542" stroke-width="2.2" stroke-opacity="0.4"/>
    <line x1="-3204.8" y1="2264.3" x2="-87.2" y2="-853.3" stroke="#f3a442" stroke-width="2.2" stroke-opacity="0.4"/>
    <line x1="-3180.8" y1="2264.3" x2="-63.2" y2="-853.3" stroke="#f3a442" stroke-width="2.2" stroke-opacity="0.4"/>
    <line x1="-3156.8" y1="2264.3" x2="-39.2" y2="-853.3" stroke="#f3a342" stroke-width="2.2" stroke-opacity="0.4"/>
    <line x1="-3132.8" y1="2264.3" x2="-15.2" y2="-853.3" stroke="#f3a342" stroke-width="2.2" stroke-opacity="0.4"/>
    <line x1="-3108.8" y1="2264.3" x2="8.8" y2="-853.3" stroke="#f3a242" stroke-width="2.2" stroke-opacity="0.4"/>
    <line x1="-3084.8" y1="2264.3" x2="32.8" y2="-853.3" stroke="#f3a242" stroke-width="2.2" stroke-opacity="0.4"/>
    <line x1="-3060.8" y1="2264.3" x2="56.8" y2="-853.3" stroke="#f3a142" stroke-width="2.2" stroke-opacity="0.4"/>
    <line x1="-3036.8" y1="2264.3" x2="80.8" y2="-853.3" stroke="#f3a142" stroke-width="2.2" stroke-opacity="0.4"/>
    <line x1="-3012.8" y1="2264.3" x2="104.8" y2="-853.3" stroke="#f3a042" stroke-width="2.2" stroke-opacity="0.4"/>
    <line x1="-2988.8" y1="2264.3" x2="128.8" y2="-853.3" stroke="#f3a042" stroke-width="2.2" stroke-opacity="0.4"/>
    <line x1="-2964.8" y1="2264.3" x2="152.8" y2="-853.3" stroke="#f39f42" stroke-width="2.2" stroke-opacity="0.4"/>
    <line x1="-2940.8" y1="2264.3" x2="176.8" y2="-853.3" stroke="#f39f42" stroke-width="2.2" stroke-opacity="0.4"/>
    <line x1="-2916.8" y1="2264.3" x2="200.8" y2="-853.3" stroke="#f39e42" stroke-width="2.2" stroke-opacity="0.4"/>
    <line x1="-2892.8" y1="2264.3" x2="224.8" y2="-853.3" stroke="#f39e42" stroke-width="2.2" stroke-opacity="0.4"/>
    <line x1="-2868.8" y1="2264.3" x2="248.8" y2="-853.3" stroke="#f39d42" stroke-width="2.2" stroke-opacity="0.4"/>
    <line x1="-2844.8" y1="2264.3" x2="272.8" y2="-853.3" stroke="#f39d43" stroke-width="2.2" stroke-opacity="0.4"/>
    <line x1="-2820.8" y1="2264.3" x2="296.8" y2="-853.3" stroke="#f39c43" stroke-width="2.2" stroke-opacity="0.4"/>
    <line x1="-2796.8" y1="2264.3" x2="320.8" y2="-853.3" stroke="#f39c43" stroke-width="2.2" stroke-opacity="0.4"/>
    <line x1="-2772.8" y1="2264.3" x2="344.8" y2="-853.3" stroke="#f39b43" stroke-width="2.2" stroke-opacity="0.4"/>
    <line x1="-2748.8" y1="2264.3" x2="368.8" y2="-853.3" stroke="#f39b43" stroke-width="2.2" stroke-opacity="0.4"/>
    <line x1="-2724.8" y1="2264.3" x2="392.8" y2="-853.3" stroke="#f39a43" stroke-width="2.2" stroke-opacity="0.4"/>
    <line x1="-2700.8" y1="2264.3" x2="416.8" y2="-853.3" stroke="#f39a43" stroke-width="2.2" stroke-opacity="0.4"/>
    <line x1="-2676.8" y1="2264.3" x2="440.8" y2="-853.3" stroke="#f39943" stroke-width="2.2" stroke-opacity="0.4"/>
    <line x1="-2652.8" y1="2264.3" x2="464.8" y2="-853.3" stroke="#f39943" stroke-width="2.2" stroke-opacity="0.4"/>
    <line x1="-2628.8" y1="2264.3" x2="488.8" y2="-853.3" stroke="#f39843" stroke-width="2.2" stroke-opacity="0.4"/>
    <line x1="-2604.8" y1="2264.3" x2="512.8" y2="-853.3" stroke="#f39843" stroke-width="2.2" stroke-opacity="0.4"/>
    <line x1="-2580.8" y1="2264.3" x2="536.8" y2="-853.3" stroke="#f39743" stroke-width="2.2" stroke-opacity="0.4"/>
    <line x1="-2556.8" y1="2264.3" x2="560.8" y2="-853.3" stroke="#f39743" stroke-width="2.2" stroke-opacity="0.4"/>
    <line x1="-2532.8" y1="2264.3" x2="584.8" y2="-853.3" stroke="#f39643" stroke-width="2.2" stroke-opacity="0.4"/>
    <line x1="-2508.8" y1="2264.3" x2="608.8" y2="-853.3" stroke="#f29643" stroke-width="2.2" stroke-opacity="0.4"/>
    <line x1="-2484.8" y1="2264.3" x2="632.8" y2="-853.3" stroke="#f29543" stroke-width="2.2" stroke-opacity="0.4"/>
    <line x1="-2460.8" y1="2264.3" x2="656.8" y2="-853.3" stroke="#f29543" stroke-width="2.2" stroke-opacity="0.4"/>
    <line x1="-2436.8" y1="2264.3" x2="680.8" y2="-853.3" stroke="#f29443" stroke-width="2.2" stroke-opacity="0.4"/>
    <line x1="-2412.8" y1="2264.3" x2="704.8" y2="-853.3" stroke="#f29443" stroke-width="2.2" stroke-opacity="0.4"/>
    <line x1="-2388.8" y1="2264.3" x2="728.8" y2="-853.3" stroke="#f29344" stroke-width="2.2" stroke-opacity="0.4"/>
    <line x1="-2364.8" y1="2264.3" x2="752.8" y2="-853.3" stroke="#f29244" stroke-width="2.2" stroke-opacity="0.4"/>
    <line x1="-2340.8" y1="2264.3" x2="776.8" y2="-853.3" stroke="#f29244" stroke-width="2.2" stroke-opacity="0.4"/>
    <line x1="-2316.8" y1="2264.3" x2="800.8" y2="-853.3" stroke="#f29144" stroke-width="2.2" stroke-opacity="0.4"/>
    <line x1="-2292.8" y1="2264.3" x2="824.8" y2="-853.3" stroke="#f29144" stroke-width="2.2" stroke-opacity="0.4"/>
    <line x1="-2268.8" y1="2264.3" x2="848.8" y2="-853.3" stroke="#f29044" stroke-width="2.2" stroke-opacity="0.4"/>
    <line x1="-2244.8" y1="2264.3" x2="872.8" y2="-853.3" stroke="#f29044" stroke-width="2.2" stroke-opacity="0.4"/>
    <line x1="-2220.8" y1="2264.3" x2="896.8" y2="-853.3" stroke="#f28f44" stroke-width="2.2" stroke-opacity="0.4"/>
    <line x1="-2196.8" y1="2264.3" x2="920.8" y2="-853.3" stroke="#f28f44" stroke-width="2.2" stroke-opacity="0.4"/>
    <line x1="-2172.8" y1="2264.3" x2="944.8" y2="-853.3" stroke="#f28e44" stroke-width="2.2" stroke-opacity="0.4"/>
    <line x1="-2148.8" y1="2264.3" x2="968.8" y2="-853.3" stroke="#f28e44" stroke-width="2.2" stroke-opacity="0.4"/>
    <line x1="-2124.8" y1="2264.3" x2="992.8" y2="-853.3" stroke="#f28d44" stroke-width="2.2" stroke-opacity="0.4"/>
    <line x1="-2100.8" y1="2264.3" x2="1016.8" y2="-853.3" stroke="#f28d44" stroke-width="2.2" stroke-opacity="0.4"/>
    <line x1="-2076.8" y1="2264.3" x2="1040.8" y2="-853.3" stroke="#f28c44" stroke-width="2.2" stroke-opacity="0.4"/>
    <line x1="-2052.8" y1="2264.3" x2="1064.8" y2="-853.3" stroke="#f28c44" stroke-width="2.2" stroke-opacity="0.4"/>
    <line x1="-2028.8" y1="2264.3" x2="1088.8" y2="-853.3" stroke="#f28b44" stroke-width="2.2" stroke-opacity="0.4"/>
    <line x1="-2004.8" y1="2264.3" x2="1112.8" y2="-853.3" stroke="#f28b44" stroke-width="2.2" stroke-opacity="0.4"/>
    <line x1="-1980.8" y1="2264.3" x2="1136.8" y2="-853.3" stroke="#f28a44" stroke-width="2.2" stroke-opacity="0.4"/>
    <line x1="-1956.8" y1="2264.3" x2="1160.8" y2="-853.3" stroke="#f28a45" stroke-width="2.2" stroke-opacity="0.4"/>
    <line x1="-1932.8" y1="2264.3" x2="1184.8" y2="-853.3" stroke="#f28945" stroke-width="2.2" stroke-opacity="0.4"/>
    <line x1="-1908.8" y1="2264.3" x2="1208.8" y2="-853.3" stroke="#f28945" stroke-width="2.2" stroke-opacity="0.4"/>
    <line x1="-1884.8" y1="2264.3" x2="1232.8" y2="-853.3" stroke="#f28845" stroke-width="2.2" stroke-opacity="0.4"/>
    <line x1="-1860.8" y1="2264.3" x2="1256.8" y2="-853.3" stroke="#f28845" stroke-width="2.2" stroke-opacity="0.4"/>
    <line x1="-1836.8" y1="2264.3" x2="1280.8" y2="-853.3" stroke="#f28745" stroke-width="2.2" stroke-opacity="0.4"/>
    <line x1="-1812.8" y1="2264.3" x2="1304.8" y2="-853.3" stroke="#f28745" stroke-width="2.2" stroke-opacity="0.4"/>
    <line x1="-1788.8" y1="2264.3" x2="1328.8" y2="-853.3" stroke="#f28645" stroke-width="2.2" stroke-opacity="0.4"/>
    <line x1="-1764.8" y1="2264.3" x2="1352.8" y2="-853.3" stroke="#f28645" stroke-width="2.2" stroke-opacity="0.4"/>
    <line x1="-1740.8" y1="2264.3" x2="1376.8" y2="-853.3" stroke="#f28545" stroke-width="2.2" stroke-opacity="0.4"/>
    <line x1="-1716.8" y1="2264.3" x2="1400.8" y2="-853.3" stroke="#f18545" stroke-width="2.2" stroke-opacity="0.4"/>
    <line x1="-1692.8" y1="2264.3" x2="1424.8" y2="-853.3" stroke="#f18445" stroke-width="2.2" stroke-opacity="0.4"/>
    <line x1="-1668.8" y1="2264.3" x2="1448.8" y2="-853.3" stroke="#f18445" stroke-width="2.2" stroke-opacity="0.4"/>
    <line x1="-1644.8" y1="2264.3" x2="1472.8" y2="-853.3" stroke="#f18345" stroke-width="2.2" stroke-opacity="0.4"/>
    <line x1="-1620.8" y1="2264.3" x2="1496.8" y2="-853.3" stroke="#f18345" stroke-width="2.2" stroke-opacity="0.4"/>
    <line x1="-1596.8" y1="2264.3" x2="1520.8" y2="-853.3" stroke="#f18245" stroke-width="2.2" stroke-opacity="0.4"/>
    <line x1="-1572.8" y1="2264.3" x2="1544.8" y2="-853.3" stroke="#f18245" stroke-width="2.2" stroke-opacity="0.4"/>
    <line x1="-1548.8" y1="2264.3" x2="1568.8" y2="-853.3" stroke="#f18145" stroke-width="2.2" stroke-opacity="0.4"/>
    <line x1="-1524.8" y1="2264.3" x2="1592.8" y2="-853.3" stroke="#f18145" stroke-width="2.2" stroke-opacity="0.4"/>
    <line x1="-1500.8" y1="2264.3" x2="1616.8" y2="-853.3" stroke="#f18046" stroke-width="2.2" stroke-opacity="0.4"/>
    <line x1="-1476.8" y1="2264.3" x2="1640.8" y2="-853.3" stroke="#f17f46" stroke-width="2.2" stroke-opacity="0.4"/>
    <line x1="-1452.8" y1="2264.3" x2="1664.8" y2="-853.3" stroke="#f17f46" stroke-width="2.2" stroke-opacity="0.4"/>
    <line x1="-1428.8" y1="2264.3" x2="1688.8" y2="-853.3" stroke="#f17e46" stroke-width="2.2" stroke-opacity="0.4"/>
    <line x1="-1404.8" y1="2264.3" x2="1712.8" y2="-853.3" stroke="#f17e46" stroke-width="2.2" stroke-opacity="0.4"/>
    <line x1="-1380.8" y1="2264.3" x2="1736.8" y2="-853.3" stroke="#f17d46" stroke-width="2.2" stroke-opacity="0.4"/>
    <line x1="-1356.8" y1="2264.3" x2="1760.8" y2="-853.3" stroke="#f17d46" stroke-width="2.2" stroke-opacity="0.4"/>
    <line x1="-1332.8" y1="2264.3" x2="1784.8" y2="-853.3" stroke="#f17c46" stroke-width="2.2" stroke-opacity="0.4"/>
    <line x1="-1308.8" y1="2264.3" x2="1808.8" y2="-853.3" stroke="#f17c46" stroke-width="2.2" stroke-opacity="0.4"/>
    <line x1="-1284.8" y1="2264.3" x2="1832.8" y2="-853.3" stroke="#f17b46" stroke-width="2.2" stroke-opacity="0.4"/>
    <line x1="-1260.8" y1="2264.3" x2="1856.8" y2="-853.3" stroke="#f17b46" stroke-width="2.2" stroke-opacity="0.4"/>
    <line x1="-1236.8" y1="2264.3" x2="1880.8" y2="-853.3" stroke="#f17a46" stroke-width="2.2" stroke-opacity="0.4"/>
    <line x1="-1212.8" y1="2264.3" x2="1904.8" y2="-853.3" stroke="#f17a46" stroke-width="2.2" stroke-opacity="0.4"/>
    <line x1="-1188.8" y1="2264.3" x2="1928.8" y2="-853.3" stroke="#f17946" stroke-width="2.2" stroke-opacity="0.4"/>
    <line x1="-1164.8" y1="2264.3" x2="1952.8" y2="-853.3" stroke="#f17946" stroke-width="2.2" stroke-opacity="0.4"/>
    <line x1="-1140.8" y1="2264.3" x2="1976.8" y2="-853.3" stroke="#f17846" stroke-width="2.2" stroke-opacity="0.4"/>
    <line x1="-1116.8" y1="2264.3" x2="2000.8" y2="-853.3" stroke="#f17846" stroke-width="2.2" stroke-opacity="0.4"/>
    <line x1="-1092.8" y1="2264.3" x2="2024.8" y2="-853.3" stroke="#f17746" stroke-width="2.2" stroke-opacity="0.4"/>
    <line x1="-1068.8" y1="2264.3" x2="2048.8" y2="-853.3" stroke="#f17746" stroke-width="2.2" stroke-opacity="0.4"/>
    <line x1="-1044.8" y1="2264.3" x2="2072.8" y2="-853.3" stroke="#f17647" stroke-width="2.2" stroke-opacity="0.4"/>
    <line x1="-1020.8" y1="2264.3" x2="2096.8" y2="-853.3" stroke="#f17647" stroke-width="2.2" stroke-opacity="0.4"/>
    <line x1="-996.8" y1="2264.3" x2="2120.8" y2="-853.3" stroke="#f17547" stroke-width="2.2" stroke-opacity="0.4"/>
    <line x1="-972.8" y1="2264.3" x2="2144.8" y2="-853.3" stroke="#f17547" stroke-width="2.2" stroke-opacity="0.4"/>
    <line x1="-948.8" y1="2264.3" x2="2168.8" y2="-853.3" stroke="#f07447" stroke-width="2.2" stroke-opacity="0.4"/>
    <line x1="-924.8" y1="2264.3" x2="2192.8" y2="-853.3" stroke="#f07447" stroke-width="2.2" stroke-opacity="0.4"/>
    <line x1="-900.8" y1="2264.3" x2="2216.8" y2="-853.3" stroke="#f07347" stroke-width="2.2" stroke-opacity="0.4"/>
    <line x1="-876.8" y1="2264.3" x2="2240.8" y2="-853.3" stroke="#f07347" stroke-width="2.2" stroke-opacity="0.4"/>
    <line x1="-852.8" y1="2264.3" x2="2264.8" y2="-853.3" stroke="#f07247" stroke-width="2.2" stroke-opacity="0.4"/>
    <line x1="-828.8" y1="2264.3" x2="2288.8" y2="-853.3" stroke="#f07247" stroke-width="2.2" stroke-opacity="0.4"/>
    <line x1="-804.8" y1="2264.3" x2="2312.8" y2="-853.3" stroke="#f07147" stroke-width="2.2" stroke-opacity="0.4"/>
    <line x1="-780.8" y1="2264.3" x2="2336.8" y2="-853.3" stroke="#f07147" stroke-width="2.2" stroke-opacity="0.4"/>
    <line x1="-756.8" y1="2264.3" x2="2360.8" y2="-853.3" stroke="#f07047" stroke-width="2.2" stroke-opacity="0.4"/>
    <line x1="-732.8" y1="2264.3" x2="2384.8" y2="-853.3" stroke="#f07047" stroke-width="2.2" stroke-opacity="0.4"/>
    <line x1="-708.8" y1="2264.3" x2="2408.8" y2="-853.3" stroke="#f06f47" stroke-width="2.2" stroke-opacity="0.4"/>
    <line x1="-684.8" y1="2264.3" x2="2432.8" y2="-853.3" stroke="#f06f47" stroke-width="2.2" stroke-opacity="0.4"/>
    <line x1="-660.8" y1="2264.3" x2="2456.8" y2="-853.3" stroke="#f06e47" stroke-width="2.2" stroke-opacity="0.4"/>
    <line x1="-636.8" y1="2264.3" x2="2480.8" y2="-853.3" stroke="#f06e47" stroke-width="2.2" stroke-opacity="0.4"/>
    <line x1="-612.8" y1="2264.3" x2="2504.8" y2="-853.3" stroke="#f06d48" stroke-width="2.2" stroke-opacity="0.4"/>
    <line x1="-588.8" y1="2264.3" x2="2528.8" y2="-853.3" stroke="#f06c48" stroke-width="2.2" stroke-opacity="0.4"/>
    <line x1="-564.8" y1="2264.3" x2="2552.8" y2="-853.3" stroke="#f06c48" stroke-width="2.2" stroke-opacity="0.4"/>
    <line x1="-540.8" y1="2264.3" x2="2576.8" y2="-853.3" stroke="#f06b48" stroke-width="2.2" stroke-opacity="0.4"/>
    <line x1="-516.8" y1="2264.3" x2="2600.8" y2="-853.3" stroke="#f06b48" stroke-width="2.2" stroke-opacity="0.4"/>
    <line x1="-492.8" y1="2264.3" x2="2624.8" y2="-853.3" stroke="#f06a48" stroke-width="2.2" stroke-opacity="0.4"/>
    <line x1="-468.8" y1="2264.3" x2="2648.8" y2="-853.3" stroke="#f06a48" stroke-width="2.2" stroke-opacity="0.4"/>
    <line x1="-444.8" y1="2264.3" x2="2672.8" y2="-853.3" stroke="#f06948" stroke-width="2.2" stroke-opacity="0.4"/>
    <line x1="-420.8" y1="2264.3" x2="2696.8" y2="-853.3" stroke="#f06948" stroke-width="2.2" stroke-opacity="0.4"/>
    <line x1="-396.8" y1="2264.3" x2="2720.8" y2="-853.3" stroke="#f06848" stroke-width="2.2" stroke-opacity="0.4"/>
    <line x1="-372.8" y1="2264.3" x2="2744.8" y2="-853.3" stroke="#f06848" stroke-width="2.2" stroke-opacity="0.4"/>
    <line x1="-348.8" y1="2264.3" x2="2768.8" y2="-853.3" stroke="#f06748" stroke-width="2.2" stroke-opacity="0.4"/>
    <line x1="-324.8" y1="2264.3" x2="2792.8" y2="-853.3" stroke="#f06748" stroke-width="2.2" stroke-opacity="0.4"/>
    <line x1="-300.8" y1="2264.3" x2="2816.8" y2="-853.3" stroke="#f06648" stroke-width="2.2" stroke-opacity="0.4"/>
    <line x1="-276.8" y1="2264.3" x2="2840.8" y2="-853.3" stroke="#f06648" stroke-width="2.2" stroke-opacity="0.4"/>
    <line x1="-252.8" y1="2264.3" x2="2864.8" y2="-853.3" stroke="#f06548" stroke-width="2.2" stroke-opacity="0.4"/>
    <line x1="-228.8" y1="2264.3" x2="2888.8" y2="-853.3" stroke="#f06548" stroke-width="2.2" stroke-opacity="0.4"/>
    <line x1="-204.8" y1="2264.3" x2="2912.8" y2="-853.3" stroke="#f06448" stroke-width="2.2" stroke-opacity="0.4"/>
    <line x1="-180.8" y1="2264.3" x2="2936.8" y2="-853.3" stroke="#f06448" stroke-width="2.2" stroke-opacity="0.4"/>
    <line x1="-156.8" y1="2264.3" x2="2960.8" y2="-853.3" stroke="#ef6349" stroke-width="2.2" stroke-opacity="0.4"/>
    <line x1="-132.8" y1="2264.3" x2="2984.8" y2="-853.3" stroke="#ef6349" stroke-width="2.2" stroke-opacity="0.4"/>
    <line x1="-108.8" y1="2264.3" x2="3008.8" y2="-853.3" stroke="#ef634a" stroke-width="2.2" stroke-opacity="0.4"/>
    <line x1="-84.8" y1="2264.3" x2="3032.8" y2="-853.3" stroke="#ef634a" stroke-width="2.2" stroke-opacity="0.4"/>
    <line x1="-60.8" y1="2264.3" x2="3056.8" y2="-853.3" stroke="#ef634b" stroke-width="2.2" stroke-opacity="0.4"/>
    <line x1="-36.8" y1="2264.3" x2="3080.8" y2="-853.3" stroke="#ef624b" stroke-width="2.2" stroke-opacity="0.4"/>
    <line x1="-12.8" y1="2264.3" x2="3104.8" y2="-853.3" stroke="#ef624c" stroke-width="2.2" stroke-opacity="0.4"/>
    <line x1="11.2" y1="2264.3" x2="3128.8" y2="-853.3" stroke="#ef624c" stroke-width="2.2" stroke-opacity="0.4"/>
    <line x1="35.2" y1="2264.3" x2="3152.8" y2="-853.3" stroke="#ef624d" stroke-width="2.2" stroke-opacity="0.4"/>
    <line x1="59.2" y1="2264.3" x2="3176.8" y2="-853.3" stroke="#ef624d" stroke-width="2.2" stroke-opacity="0.4"/>
    <line x1="83.2" y1="2264.3" x2="3200.8" y2="-853.3" stroke="#ef614e" stroke-width="2.2" stroke-opacity="0.4"/>
    <line x1="107.2" y1="2264.3" x2="3224.8" y2="-853.3" stroke="#ef614e" stroke-width="2.2" stroke-opacity="0.4"/>
    <line x1="131.2" y1="2264.3" x2="3248.8" y2="-853.3" stroke="#ef614f" stroke-width="2.2" stroke-opacity="0.4"/>
    <line x1="155.2" y1="2264.3" x2="3272.8" y2="-853.3" stroke="#ef614f" stroke-width="2.2" stroke-opacity="0.4"/>
    <line x1="179.2" y1="2264.3" x2="3296.8" y2="-853.3" stroke="#ef6150" stroke-width="2.2" stroke-opacity="0.4"/>
    <line x1="203.2" y1="2264.3" x2="3320.8" y2="-853.3" stroke="#ef6150" stroke-width="2.2" stroke-opacity="0.4"/>
    <line x1="227.2" y1="2264.3" x2="3344.8" y2="-853.3" stroke="#ee6051" stroke-width="2.2" stroke-opacity="0.4"/>
    <line x1="251.2" y1="2264.3" x2="3368.8" y2="-853.3" stroke="#ee6051" stroke-width="2.2" stroke-opacity="0.4"/>
    <line x1="275.2" y1="2264.3" x2="3392.8" y2="-853.3" stroke="#ee6052" stroke-width="2.2" stroke-opacity="0.4"/>
    <line x1="299.2" y1="2264.3" x2="3416.8" y2="-853.3" stroke="#ee6052" stroke-width="2.2" stroke-opacity="0.4"/>
    <line x1="323.2" y1="2264.3" x2="3440.8" y2="-853.3" stroke="#ee6053" stroke-width="2.2" stroke-opacity="0.4"/>
    <line x1="347.2" y1="2264.3" x2="3464.8" y2="-853.3" stroke="#ee5f53" stroke-width="2.2" stroke-opacity="0.4"/>
    <line x1="371.2" y1="2264.3" x2="3488.8" y2="-853.3" stroke="#ee5f54" stroke-width="2.2" stroke-opacity="0.4"/>
    <line x1="395.2" y1="2264.3" x2="3512.8" y2="-853.3" stroke="#ee5f54" stroke-width="2.2" stroke-opacity="0.4"/>
    <line x1="419.2" y1="2264.3" x2="3536.8" y2="-853.3" stroke="#ee5f55" stroke-width="2.2" stroke-opacity="0.4"/>
    <line x1="443.2" y1="2264.3" x2="3560.8" y2="-853.3" stroke="#ee5f55" stroke-width="2.2" stroke-opacity="0.4"/>
    <line x1="467.2" y1="2264.3" x2="3584.8" y2="-853.3" stroke="#ee5e56" stroke-width="2.2" stroke-opacity="0.4"/>
    <line x1="491.2" y1="2264.3" x2="3608.8" y2="-853.3" stroke="#ee5e56" stroke-width="2.2" stroke-opacity="0.4"/>
    <line x1="515.2" y1="2264.3" x2="3632.8" y2="-853.3" stroke="#ee5e57" stroke-width="2.2" stroke-opacity="0.4"/>
    <line x1="539.2" y1="2264.3" x2="3656.8" y2="-853.3" stroke="#ee5e57" stroke-width="2.2" stroke-opacity="0.4"/>
    <line x1="563.2" y1="2264.3" x2="3680.8" y2="-853.3" stroke="#ee5e58" stroke-width="2.2" stroke-opacity="0.4"/>
    <line x1="587.2" y1="2264.3" x2="3704.8" y2="-853.3" stroke="#ee5d58" stroke-width="2.2" stroke-opacity="0.4"/>
    <line x1="611.2" y1="2264.3" x2="3728.8" y2="-853.3" stroke="#ee5d59" stroke-width="2.2" stroke-opacity="0.4"/>
    <line x1="635.2" y1="2264.3" x2="3752.8" y2="-853.3" stroke="#ed5d59" stroke-width="2.2" stroke-opacity="0.4"/>
    <line x1="659.2" y1="2264.3" x2="3776.8" y2="-853.3" stroke="#ed5d5a" stroke-width="2.2" stroke-opacity="0.4"/>
    <line x1="683.2" y1="2264.3" x2="3800.8" y2="-853.3" stroke="#ed5d5a" stroke-width="2.2" stroke-opacity="0.4"/>
    <line x1="707.2" y1="2264.3" x2="3824.8" y2="-853.3" stroke="#ed5d5b" stroke-width="2.2" stroke-opacity="0.4"/>
    <line x1="731.2" y1="2264.3" x2="3848.8" y2="-853.3" stroke="#ed5c5b" stroke-width="2.2" stroke-opacity="0.4"/>
    <line x1="755.2" y1="2264.3" x2="3872.8" y2="-853.3" stroke="#ed5c5c" stroke-width="2.2" stroke-opacity="0.4"/>
    <line x1="779.2" y1="2264.3" x2="3896.8" y2="-853.3" stroke="#ed5c5c" stroke-width="2.2" stroke-opacity="0.4"/>
    <line x1="803.2" y1="2264.3" x2="3920.8" y2="-853.3" stroke="#ed5c5d" stroke-width="2.2" stroke-opacity="0.4"/>
    <line x1="827.2" y1="2264.3" x2="3944.8" y2="-853.3" stroke="#ed5c5d" stroke-width="2.2" stroke-opacity="0.4"/>
    <line x1="851.2" y1="2264.3" x2="3968.8" y2="-853.3" stroke="#ed5b5e" stroke-width="2.2" stroke-opacity="0.4"/>
    <line x1="875.2" y1="2264.3" x2="3992.8" y2="-853.3" stroke="#ed5b5e" stroke-width="2.2" stroke-opacity="0.4"/>
    <line x1="899.2" y1="2264.3" x2="4016.8" y2="-853.3" stroke="#ed5b5f" stroke-width="2.2" stroke-opacity="0.4"/>
    <line x1="923.2" y1="2264.3" x2="4040.8" y2="-853.3" stroke="#ed5b5f" stroke-width="2.2" stroke-opacity="0.4"/>
    <line x1="947.2" y1="2264.3" x2="4064.8" y2="-853.3" stroke="#ed5b60" stroke-width="2.2" stroke-opacity="0.4"/>
    <line x1="971.2" y1="2264.3" x2="4088.8" y2="-853.3" stroke="#ed5a60" stroke-width="2.2" stroke-opacity="0.4"/>
    <line x1="995.2" y1="2264.3" x2="4112.8" y2="-853.3" stroke="#ed5a61" stroke-width="2.2" stroke-opacity="0.4"/>
    <line x1="1019.2" y1="2264.3" x2="4136.8" y2="-853.3" stroke="#ec5a61" stroke-width="2.2" stroke-opacity="0.4"/>
    <line x1="1043.2" y1="2264.3" x2="4160.8" y2="-853.3" stroke="#ec5a62" stroke-width="2.2" stroke-opacity="0.4"/>
    <line x1="1067.2" y1="2264.3" x2="4184.8" y2="-853.3" stroke="#ec5a62" stroke-width="2.2" stroke-opacity="0.4"/>
    <line x1="1091.2" y1="2264.3" x2="4208.8" y2="-853.3" stroke="#ec5963" stroke-width="2.2" stroke-opacity="0.4"/>
    <line x1="1115.2" y1="2264.3" x2="4232.8" y2="-853.3" stroke="#ec5963" stroke-width="2.2" stroke-opacity="0.4"/>
    <line x1="1139.2" y1="2264.3" x2="4256.8" y2="-853.3" stroke="#ec5964" stroke-width="2.2" stroke-opacity="0.4"/>
    <line x1="1163.2" y1="2264.3" x2="4280.8" y2="-853.3" stroke="#ec5964" stroke-width="2.2" stroke-opacity="0.4"/>
    <line x1="1187.2" y1="2264.3" x2="4304.8" y2="-853.3" stroke="#ec5965" stroke-width="2.2" stroke-opacity="0.4"/>
    <line x1="1211.2" y1="2264.3" x2="4328.8" y2="-853.3" stroke="#ec5865" stroke-width="2.2" stroke-opacity="0.4"/>
    <line x1="1235.2" y1="2264.3" x2="4352.8" y2="-853.3" stroke="#ec5866" stroke-width="2.2" stroke-opacity="0.4"/>
    <line x1="1259.2" y1="2264.3" x2="4376.8" y2="-853.3" stroke="#ec5866" stroke-width="2.2" stroke-opacity="0.4"/>
    <line x1="1283.2" y1="2264.3" x2="4400.8" y2="-853.3" stroke="#ec5867" stroke-width="2.2" stroke-opacity="0.4"/>
    <line x1="1307.2" y1="2264.3" x2="4424.8" y2="-853.3" stroke="#ec5867" stroke-width="2.2" stroke-opacity="0.4"/>
    <line x1="1331.2" y1="2264.3" x2="4448.8" y2="-853.3" stroke="#ec5868" stroke-width="2.2" stroke-opacity="0.4"/>
    <line x1="1355.2" y1="2264.3" x2="4472.8" y2="-853.3" stroke="#ec5768" stroke-width="2.2" stroke-opacity="0.4"/>
    <line x1="1379.2" y1="2264.3" x2="4496.8" y2="-853.3" stroke="#ec5769" stroke-width="2.2" stroke-opacity="0.4"/>
    <line x1="1403.2" y1="2264.3" x2="4520.8" y2="-853.3" stroke="#eb5769" stroke-width="2.2" stroke-opacity="0.4"/>
    <line x1="1427.2" y1="2264.3" x2="4544.8" y2="-853.3" stroke="#eb576a" stroke-width="2.2" stroke-opacity="0.4"/>
    <line x1="1451.2" y1="2264.3" x2="4568.8" y2="-853.3" stroke="#eb576a" stroke-width="2.2" stroke-opacity="0.4"/>
    <line x1="1475.2" y1="2264.3" x2="4592.8" y2="-853.3" stroke="#eb566b" stroke-width="2.2" stroke-opacity="0.4"/>
    <line x1="1499.2" y1="2264.3" x2="4616.8" y2="-853.3" stroke="#eb566b" stroke-width="2.2" stroke-opacity="0.4"/>
    <line x1="1523.2" y1="2264.3" x2="4640.8" y2="-853.3" stroke="#eb566c" stroke-width="2.2" stroke-opacity="0.4"/>
    <line x1="1547.2" y1="2264.3" x2="4664.8" y2="-853.3" stroke="#eb566c" stroke-width="2.2" stroke-opacity="0.4"/>
    <line x1="1571.2" y1="2264.3" x2="4688.8" y2="-853.3" stroke="#eb566d" stroke-width="2.2" stroke-opacity="0.4"/>
    <line x1="1595.2" y1="2264.3" x2="4712.8" y2="-853.3" stroke="#eb556d" stroke-width="2.2" stroke-opacity="0.4"/>
    <line x1="1619.2" y1="2264.3" x2="4736.8" y2="-853.3" stroke="#eb556e" stroke-width="2.2" stroke-opacity="0.4"/>
    <line x1="1643.2" y1="2264.3" x2="4760.8" y2="-853.3" stroke="#eb556e" stroke-width="2.2" stroke-opacity="0.4"/>
    <line x1="1667.2" y1="2264.3" x2="4784.8" y2="-853.3" stroke="#eb556f" stroke-width="2.2" stroke-opacity="0.4"/>
    <line x1="1691.2" y1="2264.3" x2="4808.8" y2="-853.3" stroke="#eb556f" stroke-width="2.2" stroke-opacity="0.4"/>
    <line x1="1715.2" y1="2264.3" x2="4832.8" y2="-853.3" stroke="#eb5470" stroke-width="2.2" stroke-opacity="0.4"/>
    <line x1="1739.2" y1="2264.3" x2="4856.8" y2="-853.3" stroke="#eb5470" stroke-width="2.2" stroke-opacity="0.4"/>
    <line x1="1763.2" y1="2264.3" x2="4880.8" y2="-853.3" stroke="#eb5471" stroke-width="2.2" stroke-opacity="0.4"/>
    <line x1="1787.2" y1="2264.3" x2="4904.8" y2="-853.3" stroke="#eb5471" stroke-width="2.2" stroke-opacity="0.4"/>
    <line x1="1811.2" y1="2264.3" x2="4928.8" y2="-853.3" stroke="#ea5472" stroke-width="2.2" stroke-opacity="0.4"/>
    <line x1="1835.2" y1="2264.3" x2="4952.8" y2="-853.3" stroke="#ea5472" stroke-width="2.2" stroke-opacity="0.4"/>
    <line x1="1859.2" y1="2264.3" x2="4976.8" y2="-853.3" stroke="#ea5373" stroke-width="2.2" stroke-opacity="0.4"/>
    <line x1="1883.2" y1="2264.3" x2="5000.8" y2="-853.3" stroke="#ea5373" stroke-width="2.2" stroke-opacity="0.4"/>
    <line x1="1907.2" y1="2264.3" x2="5024.8" y2="-853.3" stroke="#ea5374" stroke-width="2.2" stroke-opacity="0.4"/>
    <line x1="1931.2" y1="2264.3" x2="5048.8" y2="-853.3" stroke="#ea5374" stroke-width="2.2" stroke-opacity="0.4"/>
    <line x1="1955.2" y1="2264.3" x2="5072.8" y2="-853.3" stroke="#ea5375" stroke-width="2.2" stroke-opacity="0.4"/>
    <line x1="1979.2" y1="2264.3" x2="5096.8" y2="-853.3" stroke="#ea5275" stroke-width="2.2" stroke-opacity="0.4"/>
    <line x1="2003.2" y1="2264.3" x2="5120.8" y2="-853.3" stroke="#ea5276" stroke-width="2.2" stroke-opacity="0.4"/>
    <line x1="2027.2" y1="2264.3" x2="5144.8" y2="-853.3" stroke="#ea5276" stroke-width="2.2" stroke-opacity="0.4"/>
    <line x1="2051.2" y1="2264.3" x2="5168.8" y2="-853.3" stroke="#ea5277" stroke-width="2.2" stroke-opacity="0.4"/>
    <line x1="2075.2" y1="2264.3" x2="5192.8" y2="-853.3" stroke="#ea5277" stroke-width="2.2" stroke-opacity="0.4"/>
    <line x1="2099.2" y1="2264.3" x2="5216.8" y2="-853.3" stroke="#ea5178" stroke-width="2.2" stroke-opacity="0.4"/>
    <line x1="2123.2" y1="2264.3" x2="5240.8" y2="-853.3" stroke="#ea5178" stroke-width="2.2" stroke-opacity="0.4"/>
    <line x1="2147.2" y1="2264.3" x2="5264.8" y2="-853.3" stroke="#ea5179" stroke-width="2.2" stroke-opacity="0.4"/>
    <line x1="2171.2" y1="2264.3" x2="5288.8" y2="-853.3" stroke="#ea5179" stroke-width="2.2" stroke-opacity="0.4"/>
    <line x1="2195.2" y1="2264.3" x2="5312.8" y2="-853.3" stroke="#e9517a" stroke-width="2.2" stroke-opacity="0.4"/>
    <line x1="2219.2" y1="2264.3" x2="5336.8" y2="-853.3" stroke="#e9507a" stroke-width="2.2" stroke-opacity="0.4"/>
    <line x1="2243.2" y1="2264.3" x2="5360.8" y2="-853.3" stroke="#e9507b" stroke-width="2.2" stroke-opacity="0.4"/>
    <line x1="2267.2" y1="2264.3" x2="5384.8" y2="-853.3" stroke="#e9507b" stroke-width="2.2" stroke-opacity="0.4"/>
    <line x1="2291.2" y1="2264.3" x2="5408.8" y2="-853.3" stroke="#e9507c" stroke-width="2.2" stroke-opacity="0.4"/>
    <line x1="2315.2" y1="2264.3" x2="5432.8" y2="-853.3" stroke="#e9507c" stroke-width="2.2" stroke-opacity="0.4"/>
    <line x1="2339.2" y1="2264.3" x2="5456.8" y2="-853.3" stroke="#e94f7d" stroke-width="2.2" stroke-opacity="0.4"/>
    <line x1="2363.2" y1="2264.3" x2="5480.8" y2="-853.3" stroke="#e94f7d" stroke-width="2.2" stroke-opacity="0.4"/>
    <line x1="2387.2" y1="2264.3" x2="5504.8" y2="-853.3" stroke="#e94f7e" stroke-width="2.2" stroke-opacity="0.4"/>
    <line x1="2411.2" y1="2264.3" x2="5528.8" y2="-853.3" stroke="#e94f7e" stroke-width="2.2" stroke-opacity="0.4"/>
    <line x1="2435.2" y1="2264.3" x2="5552.8" y2="-853.3" stroke="#e94f7f" stroke-width="2.2" stroke-opacity="0.4"/>
    <line x1="2459.2" y1="2264.3" x2="5576.8" y2="-853.3" stroke="#e94f7f" stroke-width="2.2" stroke-opacity="0.4"/>
    <line x1="2483.2" y1="2264.3" x2="5600.8" y2="-853.3" stroke="#e94e80" stroke-width="2.2" stroke-opacity="0.4"/>
    <line x1="2507.2" y1="2264.3" x2="5624.8" y2="-853.3" stroke="#e94e80" stroke-width="2.2" stroke-opacity="0.4"/>
    <line x1="2531.2" y1="2264.3" x2="5648.8" y2="-853.3" stroke="#e94e81" stroke-width="2.2" stroke-opacity="0.4"/>
    <line x1="2555.2" y1="2264.3" x2="5672.8" y2="-853.3" stroke="#e94e81" stroke-width="2.2" stroke-opacity="0.4"/>
    <line x1="2579.2" y1="2264.3" x2="5696.8" y2="-853.3" stroke="#e84e82" stroke-width="2.2" stroke-opacity="0.4"/>
    <line x1="2603.2" y1="2264.3" x2="5720.8" y2="-853.3" stroke="#e84d82" stroke-width="2.2" stroke-opacity="0.4"/>
    <line x1="2627.2" y1="2264.3" x2="5744.8" y2="-853.3" stroke="#e84d83" stroke-width="2.2" stroke-opacity="0.4"/>
    <line x1="2651.2" y1="2264.3" x2="5768.8" y2="-853.3" stroke="#e84d83" stroke-width="2.2" stroke-opacity="0.4"/>
    <line x1="2675.2" y1="2264.3" x2="5792.8" y2="-853.3" stroke="#e84d84" stroke-width="2.2" stroke-opacity="0.4"/>
    <line x1="2699.2" y1="2264.3" x2="5816.8" y2="-853.3" stroke="#e84d84" stroke-width="2.2" stroke-opacity="0.4"/>
    <line x1="2723.2" y1="2264.3" x2="5840.8" y2="-853.3" stroke="#e84c85" stroke-width="2.2" stroke-opacity="0.4"/>
    <line x1="2747.2" y1="2264.3" x2="5864.8" y2="-853.3" stroke="#e84c85" stroke-width="2.2" stroke-opacity="0.4"/>
    <line x1="2771.2" y1="2264.3" x2="5888.8" y2="-853.3" stroke="#e84c86" stroke-width="2.2" stroke-opacity="0.4"/>
    <line x1="2795.2" y1="2264.3" x2="5912.8" y2="-853.3" stroke="#e84c86" stroke-width="2.2" stroke-opacity="0.4"/>
    <line x1="2819.2" y1="2264.3" x2="5936.8" y2="-853.3" stroke="#e84c87" stroke-width="2.2" stroke-opacity="0.4"/>
    <line x1="2843.2" y1="2264.3" x2="5960.8" y2="-853.3" stroke="#e84b87" stroke-width="2.2" stroke-opacity="0.4"/>
    <line x1="2867.2" y1="2264.3" x2="5984.8" y2="-853.3" stroke="#e84b88" stroke-width="2.2" stroke-opacity="0.4"/>
    <line x1="2891.2" y1="2264.3" x2="6008.8" y2="-853.3" stroke="#e84b88" stroke-width="2.2" stroke-opacity="0.4"/>
    <line x1="2915.2" y1="2264.3" x2="6032.8" y2="-853.3" stroke="#e84b89" stroke-width="2.2" stroke-opacity="0.4"/>
    <line x1="2939.2" y1="2264.3" x2="6056.8" y2="-853.3" stroke="#e84b89" stroke-width="2.2" stroke-opacity="0.4"/>
    <line x1="2963.2" y1="2264.3" x2="6080.8" y2="-853.3" stroke="#e84b8a" stroke-width="2.2" stroke-opacity="0.4"/>
</g>
</svg>