<svg width="487" height="116" viewBox="0 0 487 116" fill="none" xmlns="http://www.w3.org/2000/svg">
<path d="M147.749 46.6955H137.881V72.554H130.389V46.6955H120.475V40.1167H147.749V46.6955ZM190.745 40.1167V72.554H183.252V59.2592H170.323V72.554H162.83V40.1167H170.323V52.6804H183.252V40.1167H190.745ZM208.383 72.554V40.1167H223.002C224.525 40.1167 225.926 40.4365 227.205 41.0761C228.515 41.6852 229.642 42.5228 230.586 43.5888C231.53 44.6244 232.261 45.797 232.779 47.1067C233.327 48.4164 233.602 49.7413 233.602 51.0814C233.602 52.4215 233.388 53.7007 232.962 54.919C232.536 56.1069 231.926 57.1881 231.134 58.1628C230.343 59.107 229.398 59.8836 228.302 60.4928L235.429 72.554H227.16L220.946 62.0918H215.875V72.554H208.383ZM215.875 55.5587H222.728C223.337 55.5587 223.87 55.3759 224.327 55.0104C224.815 54.6145 225.21 54.0815 225.515 53.4114C225.82 52.7413 225.972 51.9647 225.972 51.0814C225.972 50.1981 225.789 49.4367 225.424 48.7971C225.089 48.127 224.662 47.6092 224.144 47.2437C223.627 46.8783 223.078 46.6955 222.5 46.6955H215.875V55.5587ZM250.411 72.554V40.1167H257.903V72.554H250.411ZM280.235 40.1167L287.864 63.7822L295.403 40.1167H303.306L291.519 72.554H284.164L272.285 40.1167H280.235ZM340.533 65.9751V72.554H317.735V40.1167H340.122V46.6955H325.228V53.0002H338.02V59.0765H325.228V65.9751H340.533ZM356.506 72.554V40.1167H363.999V54.0967L375.877 40.1167H384.284L372.131 54.5992L385.106 72.554H376.517L367.38 59.5334L363.999 63.0055V72.554H356.506ZM398.936 72.554V40.1167H406.428V72.554H398.936ZM448.77 46.6955H438.902V72.554H431.41V46.6955H421.496V40.1167H448.77V46.6955ZM486.649 65.9751V72.554H463.851V40.1167H486.237V46.6955H471.344V53.0002H484.136V59.0765H471.344V65.9751H486.649Z" fill="url(#paint0_linear_4083_42)"/>
<path d="M96.9385 19.0186L103.514 71.1191L100.238 70.0781C92.373 67.5786 72.3487 64.1026 55.0215 69.8613L31.8438 96.1377C31.0413 97.0475 29.653 97.1345 28.7432 96.332C27.834 95.5296 27.7469 94.1421 28.5489 93.2324L51.7266 66.9551C55.277 49.0445 49.3283 29.6108 45.8663 22.1191L44.4249 19L96.9385 19.0186ZM67.5274 76.0312C73.5751 75.6837 79.9267 77.3343 84.4512 81.3252L86.0987 82.7783L84.6456 84.4258C80.6805 88.921 74.5866 91.2853 68.5411 91.6328C63.2308 91.938 57.6859 90.7028 53.3497 87.6953L47.7432 94.0527C46.9408 94.9625 45.5524 95.0493 44.6426 94.2471C43.7328 93.4446 43.6458 92.0563 44.4483 91.1465L51.4229 83.2393C55.3881 78.7439 61.4817 76.3787 67.5274 76.0312ZM79.6085 83.1807C76.3073 81.1168 72.0603 80.171 67.7794 80.417C63.5079 80.6625 59.4421 82.08 56.46 84.4844C59.7611 86.5482 64.0082 87.4931 68.2891 87.2471C72.5604 87.0015 76.6265 85.5849 79.6085 83.1807ZM36.6788 39.1875C41.2031 43.1783 43.6337 49.2738 44.044 55.3174C44.4541 61.3591 42.8684 67.7009 38.9034 72.1963L31.9288 80.1035C31.1263 81.0133 29.738 81.1002 28.8282 80.2979C27.9184 79.4954 27.8314 78.1071 28.6338 77.1973L34.2403 70.8408C30.715 66.914 28.7978 61.5665 28.4376 56.2598C28.0276 50.2182 29.6132 43.8771 33.5782 39.3818L35.0313 37.7344L36.6788 39.1875ZM35.4424 44.2236C33.4292 47.4826 32.5306 51.6942 32.8204 55.9629C33.1108 60.241 34.5793 64.336 37.0391 67.3535C39.0521 64.0947 39.9499 59.8837 39.6602 55.6152C39.3698 51.337 37.9023 47.2412 35.4424 44.2236ZM97.0137 54.709C89.6765 53.4239 79.6046 52.7147 69.5606 54.5615L68.3145 54.79L60.2745 63.9062C74.8491 60.8358 89.8444 62.8588 98.3096 64.9766L97.0137 54.709ZM51.169 23.3955C54.3271 31.5301 58.2064 46.1558 56.9795 61L67.085 49.542C67.2901 39.9205 65.3871 30.7483 63.337 24.1807C63.2558 23.9205 63.2274 23.6563 63.2422 23.3994L51.169 23.3955ZM72.8799 49.6143C81.5422 48.5534 89.9093 49.1213 96.4395 50.1592L93.4317 26.3154L72.8799 49.6143ZM67.6915 23.4004C69.4239 29.0835 71.0381 36.5539 71.4122 44.6367L90.1368 23.4092L67.6915 23.4004Z" fill="url(#paint1_linear_4083_42)"/>
<defs>
<linearGradient id="paint0_linear_4083_42" x1="119.927" y1="42.554" x2="199.654" y2="207.974" gradientUnits="userSpaceOnUse">
<stop stop-color="#D41D70"/>
<stop offset="1" stop-color="#EA695B"/>
</linearGradient>
<linearGradient id="paint1_linear_4083_42" x1="28" y1="37.7492" x2="107.65" y2="61.1984" gradientUnits="userSpaceOnUse">
<stop stop-color="#D41D70"/>
<stop offset="1" stop-color="#EA695B"/>
</linearGradient>
</defs>
</svg>
