<svg width="1568" height="1531" viewBox="0 0 1568 1531" fill="none" xmlns="http://www.w3.org/2000/svg">
<defs>
  <clipPath id="pw-clip">
    <path d="M1498 61C1498 150.299 1480.4 238.723 1446.2 321.225C1412 403.726 1361.88 478.689 1298.69 541.833C1235.5 604.976 1160.48 655.065 1077.92 689.238C995.354 723.411 906.865 741 817.5 741L817.5 61L1498 61Z"/>
    <path d="M78.9999 61C168.299 61 256.723 78.6016 339.225 112.8C421.726 146.998 496.689 197.123 559.833 260.314C622.976 323.504 673.065 398.522 707.238 481.084C741.411 563.646 759 652.135 759 741.5L79 741.5L78.9999 61Z"/>
    <path d="M1498 1471C1408.7 1471 1320.28 1453.41 1237.78 1419.24C1155.27 1385.06 1080.31 1334.98 1017.17 1271.83C954.024 1208.69 903.935 1133.73 869.762 1051.22C835.589 968.723 818 880.299 818 791L1498 791L1498 1471Z"/>
    <path d="M78.9999 1471.5C78.9999 1382.14 96.6016 1293.65 130.8 1211.08C164.998 1128.52 215.124 1053.5 278.314 990.314C341.504 927.124 416.522 876.998 499.084 842.8C581.646 808.602 670.136 791 759.5 791L759.5 1471.5L78.9999 1471.5Z"/>
  </clipPath>
</defs>
<g clip-path="url(#pw-clip)">
    <line x1="-2519.7" y1="1861.2" x2="-328.3" y2="-330.2" stroke="#e84b8a" stroke-width="2.2" stroke-opacity="0.4"/>
    <line x1="-2495.7" y1="1861.2" x2="-304.3" y2="-330.2" stroke="#e84b88" stroke-width="2.2" stroke-opacity="0.4"/>
    <line x1="-2471.7" y1="1861.2" x2="-280.3" y2="-330.2" stroke="#e84c87" stroke-width="2.2" stroke-opacity="0.4"/>
    <line x1="-2447.7" y1="1861.2" x2="-256.3" y2="-330.2" stroke="#e84c85" stroke-width="2.2" stroke-opacity="0.4"/>
    <line x1="-2423.7" y1="1861.2" x2="-232.3" y2="-330.2" stroke="#e84d84" stroke-width="2.2" stroke-opacity="0.4"/>
    <line x1="-2399.7" y1="1861.2" x2="-208.3" y2="-330.2" stroke="#e84d82" stroke-width="2.2" stroke-opacity="0.4"/>
    <line x1="-2375.7" y1="1861.2" x2="-184.3" y2="-330.2" stroke="#e94e81" stroke-width="2.2" stroke-opacity="0.4"/>
    <line x1="-2351.7" y1="1861.2" x2="-160.3" y2="-330.2" stroke="#e94e80" stroke-width="2.2" stroke-opacity="0.4"/>
    <line x1="-2327.7" y1="1861.2" x2="-136.3" y2="-330.2" stroke="#e94f7e" stroke-width="2.2" stroke-opacity="0.4"/>
    <line x1="-2303.7" y1="1861.2" x2="-112.3" y2="-330.2" stroke="#e94f7d" stroke-width="2.2" stroke-opacity="0.4"/>
    <line x1="-2279.7" y1="1861.2" x2="-88.3" y2="-330.2" stroke="#e9507b" stroke-width="2.2" stroke-opacity="0.4"/>
    <line x1="-2255.7" y1="1861.2" x2="-64.3" y2="-330.2" stroke="#e9507a" stroke-width="2.2" stroke-opacity="0.4"/>
    <line x1="-2231.7" y1="1861.2" x2="-40.3" y2="-330.2" stroke="#ea5179" stroke-width="2.2" stroke-opacity="0.4"/>
    <line x1="-2207.7" y1="1861.2" x2="-16.3" y2="-330.2" stroke="#ea5277" stroke-width="2.2" stroke-opacity="0.4"/>
    <line x1="-2183.7" y1="1861.2" x2="7.7" y2="-330.2" stroke="#ea5276" stroke-width="2.2" stroke-opacity="0.4"/>
    <line x1="-2159.7" y1="1861.2" x2="31.7" y2="-330.2" stroke="#ea5374" stroke-width="2.2" stroke-opacity="0.4"/>
    <line x1="-2135.7" y1="1861.2" x2="55.7" y2="-330.2" stroke="#ea5373" stroke-width="2.2" stroke-opacity="0.4"/>
    <line x1="-2111.7" y1="1861.2" x2="79.7" y2="-330.2" stroke="#ea5471" stroke-width="2.2" stroke-opacity="0.4"/>
    <line x1="-2087.7" y1="1861.2" x2="103.7" y2="-330.2" stroke="#eb5470" stroke-width="2.2" stroke-opacity="0.4"/>
    <line x1="-2063.7" y1="1861.2" x2="127.7" y2="-330.2" stroke="#eb556f" stroke-width="2.2" stroke-opacity="0.4"/>
    <line x1="-2039.7" y1="1861.2" x2="151.7" y2="-330.2" stroke="#eb556d" stroke-width="2.2" stroke-opacity="0.4"/>
    <line x1="-2015.7" y1="1861.2" x2="175.7" y2="-330.2" stroke="#eb566c" stroke-width="2.2" stroke-opacity="0.4"/>
    <line x1="-1991.7" y1="1861.2" x2="199.7" y2="-330.2" stroke="#eb566a" stroke-width="2.2" stroke-opacity="0.4"/>
    <line x1="-1967.7" y1="1861.2" x2="223.7" y2="-330.2" stroke="#ec5769" stroke-width="2.2" stroke-opacity="0.4"/>
    <line x1="-1943.7" y1="1861.2" x2="247.7" y2="-330.2" stroke="#ec5868" stroke-width="2.2" stroke-opacity="0.4"/>
    <line x1="-1919.7" y1="1861.2" x2="271.7" y2="-330.2" stroke="#ec5866" stroke-width="2.2" stroke-opacity="0.4"/>
    <line x1="-1895.7" y1="1861.2" x2="295.7" y2="-330.2" stroke="#ec5965" stroke-width="2.2" stroke-opacity="0.4"/>
    <line x1="-1871.7" y1="1861.2" x2="319.7" y2="-330.2" stroke="#ec5963" stroke-width="2.2" stroke-opacity="0.4"/>
    <line x1="-1847.7" y1="1861.2" x2="343.7" y2="-330.2" stroke="#ec5a62" stroke-width="2.2" stroke-opacity="0.4"/>
    <line x1="-1823.7" y1="1861.2" x2="367.7" y2="-330.2" stroke="#ed5a61" stroke-width="2.2" stroke-opacity="0.4"/>
    <line x1="-1799.7" y1="1861.2" x2="391.7" y2="-330.2" stroke="#ed5b5f" stroke-width="2.2" stroke-opacity="0.4"/>
    <line x1="-1775.7" y1="1861.2" x2="415.7" y2="-330.2" stroke="#ed5b5e" stroke-width="2.2" stroke-opacity="0.4"/>
    <line x1="-1751.7" y1="1861.2" x2="439.7" y2="-330.2" stroke="#ed5c5c" stroke-width="2.2" stroke-opacity="0.4"/>
    <line x1="-1727.7" y1="1861.2" x2="463.7" y2="-330.2" stroke="#ed5c5b" stroke-width="2.2" stroke-opacity="0.4"/>
    <line x1="-1703.7" y1="1861.2" x2="487.7" y2="-330.2" stroke="#ed5d59" stroke-width="2.2" stroke-opacity="0.4"/>
    <line x1="-1679.7" y1="1861.2" x2="511.7" y2="-330.2" stroke="#ee5e58" stroke-width="2.2" stroke-opacity="0.4"/>
    <line x1="-1655.7" y1="1861.2" x2="535.7" y2="-330.2" stroke="#ee5e57" stroke-width="2.2" stroke-opacity="0.4"/>
    <line x1="-1631.7" y1="1861.2" x2="559.7" y2="-330.2" stroke="#ee5f55" stroke-width="2.2" stroke-opacity="0.4"/>
    <line x1="-1607.7" y1="1861.2" x2="583.7" y2="-330.2" stroke="#ee5f54" stroke-width="2.2" stroke-opacity="0.4"/>
    <line x1="-1583.7" y1="1861.2" x2="607.7" y2="-330.2" stroke="#ee6052" stroke-width="2.2" stroke-opacity="0.4"/>
    <line x1="-1559.7" y1="1861.2" x2="631.7" y2="-330.2" stroke="#ee6051" stroke-width="2.2" stroke-opacity="0.4"/>
    <line x1="-1535.7" y1="1861.2" x2="655.7" y2="-330.2" stroke="#ef6150" stroke-width="2.2" stroke-opacity="0.4"/>
    <line x1="-1511.7" y1="1861.2" x2="679.7" y2="-330.2" stroke="#ef614e" stroke-width="2.2" stroke-opacity="0.4"/>
    <line x1="-1487.7" y1="1861.2" x2="703.7" y2="-330.2" stroke="#ef624d" stroke-width="2.2" stroke-opacity="0.4"/>
    <line x1="-1463.7" y1="1861.2" x2="727.7" y2="-330.2" stroke="#ef624b" stroke-width="2.2" stroke-opacity="0.4"/>
    <line x1="-1439.7" y1="1861.2" x2="751.7" y2="-330.2" stroke="#ef634a" stroke-width="2.2" stroke-opacity="0.4"/>
    <line x1="-1415.7" y1="1861.2" x2="775.7" y2="-330.2" stroke="#f06449" stroke-width="2.2" stroke-opacity="0.4"/>
    <line x1="-1391.7" y1="1861.2" x2="799.7" y2="-330.2" stroke="#f06548" stroke-width="2.2" stroke-opacity="0.4"/>
    <line x1="-1367.7" y1="1861.2" x2="823.7" y2="-330.2" stroke="#f06648" stroke-width="2.2" stroke-opacity="0.4"/>
    <line x1="-1343.7" y1="1861.2" x2="847.7" y2="-330.2" stroke="#f06848" stroke-width="2.2" stroke-opacity="0.4"/>
    <line x1="-1319.7" y1="1861.2" x2="871.7" y2="-330.2" stroke="#f06948" stroke-width="2.2" stroke-opacity="0.4"/>
    <line x1="-1295.7" y1="1861.2" x2="895.7" y2="-330.2" stroke="#f06b48" stroke-width="2.2" stroke-opacity="0.4"/>
    <line x1="-1271.7" y1="1861.2" x2="919.7" y2="-330.2" stroke="#f06c48" stroke-width="2.2" stroke-opacity="0.4"/>
    <line x1="-1247.7" y1="1861.2" x2="943.7" y2="-330.2" stroke="#f06e47" stroke-width="2.2" stroke-opacity="0.4"/>
    <line x1="-1223.7" y1="1861.2" x2="967.7" y2="-330.2" stroke="#f06f47" stroke-width="2.2" stroke-opacity="0.4"/>
    <line x1="-1199.7" y1="1861.2" x2="991.7" y2="-330.2" stroke="#f07147" stroke-width="2.2" stroke-opacity="0.4"/>
    <line x1="-1175.7" y1="1861.2" x2="1015.7" y2="-330.2" stroke="#f07247" stroke-width="2.2" stroke-opacity="0.4"/>
    <line x1="-1151.7" y1="1861.2" x2="1039.7" y2="-330.2" stroke="#f07447" stroke-width="2.2" stroke-opacity="0.4"/>
    <line x1="-1127.7" y1="1861.2" x2="1063.7" y2="-330.2" stroke="#f17547" stroke-width="2.2" stroke-opacity="0.4"/>
    <line x1="-1103.7" y1="1861.2" x2="1087.7" y2="-330.2" stroke="#f17647" stroke-width="2.2" stroke-opacity="0.4"/>
    <line x1="-1079.7" y1="1861.2" x2="1111.7" y2="-330.2" stroke="#f17846" stroke-width="2.2" stroke-opacity="0.4"/>
    <line x1="-1055.7" y1="1861.2" x2="1135.7" y2="-330.2" stroke="#f17946" stroke-width="2.2" stroke-opacity="0.4"/>
    <line x1="-1031.7" y1="1861.2" x2="1159.7" y2="-330.2" stroke="#f17b46" stroke-width="2.2" stroke-opacity="0.4"/>
    <line x1="-1007.7" y1="1861.2" x2="1183.7" y2="-330.2" stroke="#f17c46" stroke-width="2.2" stroke-opacity="0.4"/>
    <line x1="-983.7" y1="1861.2" x2="1207.7" y2="-330.2" stroke="#f17e46" stroke-width="2.2" stroke-opacity="0.4"/>
    <line x1="-959.7" y1="1861.2" x2="1231.7" y2="-330.2" stroke="#f17f46" stroke-width="2.2" stroke-opacity="0.4"/>
    <line x1="-935.7" y1="1861.2" x2="1255.7" y2="-330.2" stroke="#f18145" stroke-width="2.2" stroke-opacity="0.4"/>
    <line x1="-911.7" y1="1861.2" x2="1279.7" y2="-330.2" stroke="#f18245" stroke-width="2.2" stroke-opacity="0.4"/>
    <line x1="-887.7" y1="1861.2" x2="1303.7" y2="-330.2" stroke="#f18445" stroke-width="2.2" stroke-opacity="0.4"/>
    <line x1="-863.7" y1="1861.2" x2="1327.7" y2="-330.2" stroke="#f28545" stroke-width="2.2" stroke-opacity="0.4"/>
    <line x1="-839.7" y1="1861.2" x2="1351.7" y2="-330.2" stroke="#f28645" stroke-width="2.2" stroke-opacity="0.4"/>
    <line x1="-815.7" y1="1861.2" x2="1375.7" y2="-330.2" stroke="#f28845" stroke-width="2.2" stroke-opacity="0.4"/>
    <line x1="-791.7" y1="1861.2" x2="1399.7" y2="-330.2" stroke="#f28945" stroke-width="2.2" stroke-opacity="0.4"/>
    <line x1="-767.7" y1="1861.2" x2="1423.7" y2="-330.2" stroke="#f28b44" stroke-width="2.2" stroke-opacity="0.4"/>
    <line x1="-743.7" y1="1861.2" x2="1447.7" y2="-330.2" stroke="#f28c44" stroke-width="2.2" stroke-opacity="0.4"/>
    <line x1="-719.7" y1="1861.2" x2="1471.7" y2="-330.2" stroke="#f28e44" stroke-width="2.2" stroke-opacity="0.4"/>
    <line x1="-695.7" y1="1861.2" x2="1495.7" y2="-330.2" stroke="#f28f44" stroke-width="2.2" stroke-opacity="0.4"/>
    <line x1="-671.7" y1="1861.2" x2="1519.7" y2="-330.2" stroke="#f29144" stroke-width="2.2" stroke-opacity="0.4"/>
    <line x1="-647.7" y1="1861.2" x2="1543.7" y2="-330.2" stroke="#f29244" stroke-width="2.2" stroke-opacity="0.4"/>
    <line x1="-623.7" y1="1861.2" x2="1567.7" y2="-330.2" stroke="#f29443" stroke-width="2.2" stroke-opacity="0.4"/>
    <line x1="-599.7" y1="1861.2" x2="1591.7" y2="-330.2" stroke="#f29543" stroke-width="2.2" stroke-opacity="0.4"/>
    <line x1="-575.7" y1="1861.2" x2="1615.7" y2="-330.2" stroke="#f39643" stroke-width="2.2" stroke-opacity="0.4"/>
    <line x1="-551.7" y1="1861.2" x2="1639.7" y2="-330.2" stroke="#f39843" stroke-width="2.2" stroke-opacity="0.4"/>
    <line x1="-527.7" y1="1861.2" x2="1663.7" y2="-330.2" stroke="#f39943" stroke-width="2.2" stroke-opacity="0.4"/>
    <line x1="-503.7" y1="1861.2" x2="1687.7" y2="-330.2" stroke="#f39b43" stroke-width="2.2" stroke-opacity="0.4"/>
    <line x1="-479.7" y1="1861.2" x2="1711.7" y2="-330.2" stroke="#f39c43" stroke-width="2.2" stroke-opacity="0.4"/>
    <line x1="-455.7" y1="1861.2" x2="1735.7" y2="-330.2" stroke="#f39e42" stroke-width="2.2" stroke-opacity="0.4"/>
    <line x1="-431.7" y1="1861.2" x2="1759.7" y2="-330.2" stroke="#f39f42" stroke-width="2.2" stroke-opacity="0.4"/>
    <line x1="-407.7" y1="1861.2" x2="1783.7" y2="-330.2" stroke="#f3a142" stroke-width="2.2" stroke-opacity="0.4"/>
    <line x1="-383.7" y1="1861.2" x2="1807.7" y2="-330.2" stroke="#f3a242" stroke-width="2.2" stroke-opacity="0.4"/>
    <line x1="-359.7" y1="1861.2" x2="1831.7" y2="-330.2" stroke="#f3a442" stroke-width="2.2" stroke-opacity="0.4"/>
    <line x1="-335.7" y1="1861.2" x2="1855.7" y2="-330.2" stroke="#f3a542" stroke-width="2.2" stroke-opacity="0.4"/>
    <line x1="-311.7" y1="1861.2" x2="1879.7" y2="-330.2" stroke="#f4a742" stroke-width="2.2" stroke-opacity="0.4"/>
    <line x1="-287.7" y1="1861.2" x2="1903.7" y2="-330.2" stroke="#f1a743" stroke-width="2.2" stroke-opacity="0.4"/>
    <line x1="-263.7" y1="1861.2" x2="1927.7" y2="-330.2" stroke="#eea844" stroke-width="2.2" stroke-opacity="0.4"/>
    <line x1="-239.7" y1="1861.2" x2="1951.7" y2="-330.2" stroke="#eca945" stroke-width="2.2" stroke-opacity="0.4"/>
    <line x1="-215.7" y1="1861.2" x2="1975.7" y2="-330.2" stroke="#e9a947" stroke-width="2.2" stroke-opacity="0.4"/>
    <line x1="-191.7" y1="1861.2" x2="1999.7" y2="-330.2" stroke="#e6aa48" stroke-width="2.2" stroke-opacity="0.4"/>
    <line x1="-167.7" y1="1861.2" x2="2023.7" y2="-330.2" stroke="#e4ab49" stroke-width="2.2" stroke-opacity="0.4"/>
    <line x1="-143.7" y1="1861.2" x2="2047.7" y2="-330.2" stroke="#e1ab4b" stroke-width="2.2" stroke-opacity="0.4"/>
    <line x1="-119.7" y1="1861.2" x2="2071.7" y2="-330.2" stroke="#deac4c" stroke-width="2.2" stroke-opacity="0.4"/>
    <line x1="-95.7" y1="1861.2" x2="2095.7" y2="-330.2" stroke="#dcad4d" stroke-width="2.2" stroke-opacity="0.4"/>
    <line x1="-71.7" y1="1861.2" x2="2119.7" y2="-330.2" stroke="#d9ad4f" stroke-width="2.2" stroke-opacity="0.4"/>
    <line x1="-47.7" y1="1861.2" x2="2143.7" y2="-330.2" stroke="#d7ae50" stroke-width="2.2" stroke-opacity="0.4"/>
    <line x1="-23.7" y1="1861.2" x2="2167.7" y2="-330.2" stroke="#d4af51" stroke-width="2.2" stroke-opacity="0.4"/>
    <line x1="0.3" y1="1861.2" x2="2191.7" y2="-330.2" stroke="#d1af52" stroke-width="2.2" stroke-opacity="0.4"/>
    <line x1="24.3" y1="1861.2" x2="2215.7" y2="-330.2" stroke="#cfb054" stroke-width="2.2" stroke-opacity="0.4"/>
    <line x1="48.3" y1="1861.2" x2="2239.7" y2="-330.2" stroke="#ccb155" stroke-width="2.2" stroke-opacity="0.4"/>
    <line x1="72.3" y1="1861.2" x2="2263.7" y2="-330.2" stroke="#c9b156" stroke-width="2.2" stroke-opacity="0.4"/>
    <line x1="96.3" y1="1861.2" x2="2287.7" y2="-330.2" stroke="#c7b258" stroke-width="2.2" stroke-opacity="0.4"/>
    <line x1="120.3" y1="1861.2" x2="2311.7" y2="-330.2" stroke="#c4b359" stroke-width="2.2" stroke-opacity="0.4"/>
    <line x1="144.3" y1="1861.2" x2="2335.7" y2="-330.2" stroke="#c2b35a" stroke-width="2.2" stroke-opacity="0.4"/>
    <line x1="168.3" y1="1861.2" x2="2359.7" y2="-330.2" stroke="#bfb45c" stroke-width="2.2" stroke-opacity="0.4"/>
    <line x1="192.3" y1="1861.2" x2="2383.7" y2="-330.2" stroke="#bcb55d" stroke-width="2.2" stroke-opacity="0.4"/>
    <line x1="216.3" y1="1861.2" x2="2407.7" y2="-330.2" stroke="#bab55e" stroke-width="2.2" stroke-opacity="0.4"/>
    <line x1="240.3" y1="1861.2" x2="2431.7" y2="-330.2" stroke="#b7b660" stroke-width="2.2" stroke-opacity="0.4"/>
    <line x1="264.3" y1="1861.2" x2="2455.7" y2="-330.2" stroke="#b4b761" stroke-width="2.2" stroke-opacity="0.4"/>
    <line x1="288.3" y1="1861.2" x2="2479.7" y2="-330.2" stroke="#b2b762" stroke-width="2.2" stroke-opacity="0.4"/>
    <line x1="312.3" y1="1861.2" x2="2503.7" y2="-330.2" stroke="#afb863" stroke-width="2.2" stroke-opacity="0.4"/>
    <line x1="336.3" y1="1861.2" x2="2527.7" y2="-330.2" stroke="#acb965" stroke-width="2.2" stroke-opacity="0.4"/>
    <line x1="360.3" y1="1861.2" x2="2551.7" y2="-330.2" stroke="#aab966" stroke-width="2.2" stroke-opacity="0.4"/>
    <line x1="384.3" y1="1861.2" x2="2575.7" y2="-330.2" stroke="#a7ba67" stroke-width="2.2" stroke-opacity="0.4"/>
    <line x1="408.3" y1="1861.2" x2="2599.7" y2="-330.2" stroke="#a5bb69" stroke-width="2.2" stroke-opacity="0.4"/>
    <line x1="432.3" y1="1861.2" x2="2623.7" y2="-330.2" stroke="#a2bb6a" stroke-width="2.2" stroke-opacity="0.4"/>
    <line x1="456.3" y1="1861.2" x2="2647.7" y2="-330.2" stroke="#9fbc6b" stroke-width="2.2" stroke-opacity="0.4"/>
    <line x1="480.3" y1="1861.2" x2="2671.7" y2="-330.2" stroke="#9dbd6d" stroke-width="2.2" stroke-opacity="0.4"/>
    <line x1="504.3" y1="1861.2" x2="2695.7" y2="-330.2" stroke="#9abd6e" stroke-width="2.2" stroke-opacity="0.4"/>
    <line x1="528.3" y1="1861.2" x2="2719.7" y2="-330.2" stroke="#97be6f" stroke-width="2.2" stroke-opacity="0.4"/>
    <line x1="552.3" y1="1861.2" x2="2743.7" y2="-330.2" stroke="#95bf70" stroke-width="2.2" stroke-opacity="0.4"/>
    <line x1="576.3" y1="1861.2" x2="2767.7" y2="-330.2" stroke="#92bf72" stroke-width="2.2" stroke-opacity="0.4"/>
    <line x1="600.3" y1="1861.2" x2="2791.7" y2="-330.2" stroke="#90c073" stroke-width="2.2" stroke-opacity="0.4"/>
    <line x1="624.3" y1="1861.2" x2="2815.7" y2="-330.2" stroke="#8dc174" stroke-width="2.2" stroke-opacity="0.4"/>
    <line x1="648.3" y1="1861.2" x2="2839.7" y2="-330.2" stroke="#8ac176" stroke-width="2.2" stroke-opacity="0.4"/>
    <line x1="672.3" y1="1861.2" x2="2863.7" y2="-330.2" stroke="#88c277" stroke-width="2.2" stroke-opacity="0.4"/>
    <line x1="696.3" y1="1861.2" x2="2887.7" y2="-330.2" stroke="#85c378" stroke-width="2.2" stroke-opacity="0.4"/>
    <line x1="720.3" y1="1861.2" x2="2911.7" y2="-330.2" stroke="#82c37a" stroke-width="2.2" stroke-opacity="0.4"/>
    <line x1="744.3" y1="1861.2" x2="2935.7" y2="-330.2" stroke="#80c47b" stroke-width="2.2" stroke-opacity="0.4"/>
    <line x1="768.3" y1="1861.2" x2="2959.7" y2="-330.2" stroke="#7dc57c" stroke-width="2.2" stroke-opacity="0.4"/>
    <line x1="792.3" y1="1861.2" x2="2983.7" y2="-330.2" stroke="#7bc67e" stroke-width="2.2" stroke-opacity="0.4"/>
    <line x1="816.3" y1="1861.2" x2="3007.7" y2="-330.2" stroke="#7ac67f" stroke-width="2.2" stroke-opacity="0.4"/>
    <line x1="840.3" y1="1861.2" x2="3031.7" y2="-330.2" stroke="#79c681" stroke-width="2.2" stroke-opacity="0.4"/>
    <line x1="864.3" y1="1861.2" x2="3055.7" y2="-330.2" stroke="#78c682" stroke-width="2.2" stroke-opacity="0.4"/>
    <line x1="888.3" y1="1861.2" x2="3079.7" y2="-330.2" stroke="#77c684" stroke-width="2.2" stroke-opacity="0.4"/>
    <line x1="912.3" y1="1861.2" x2="3103.7" y2="-330.2" stroke="#76c685" stroke-width="2.2" stroke-opacity="0.4"/>
    <line x1="936.3" y1="1861.2" x2="3127.7" y2="-330.2" stroke="#75c687" stroke-width="2.2" stroke-opacity="0.4"/>
    <line x1="960.3" y1="1861.2" x2="3151.7" y2="-330.2" stroke="#74c788" stroke-width="2.2" stroke-opacity="0.4"/>
    <line x1="984.3" y1="1861.2" x2="3175.7" y2="-330.2" stroke="#73c78a" stroke-width="2.2" stroke-opacity="0.4"/>
    <line x1="1008.3" y1="1861.2" x2="3199.7" y2="-330.2" stroke="#72c78b" stroke-width="2.2" stroke-opacity="0.4"/>
    <line x1="1032.3" y1="1861.2" x2="3223.7" y2="-330.2" stroke="#71c78d" stroke-width="2.2" stroke-opacity="0.4"/>
    <line x1="1056.3" y1="1861.2" x2="3247.7" y2="-330.2" stroke="#70c78e" stroke-width="2.2" stroke-opacity="0.4"/>
    <line x1="1080.3" y1="1861.2" x2="3271.7" y2="-330.2" stroke="#6fc790" stroke-width="2.2" stroke-opacity="0.4"/>
    <line x1="1104.3" y1="1861.2" x2="3295.7" y2="-330.2" stroke="#6ec791" stroke-width="2.2" stroke-opacity="0.4"/>
    <line x1="1128.3" y1="1861.2" x2="3319.7" y2="-330.2" stroke="#6dc893" stroke-width="2.2" stroke-opacity="0.4"/>
    <line x1="1152.3" y1="1861.2" x2="3343.7" y2="-330.2" stroke="#6cc894" stroke-width="2.2" stroke-opacity="0.4"/>
    <line x1="1176.3" y1="1861.2" x2="3367.7" y2="-330.2" stroke="#6bc896" stroke-width="2.2" stroke-opacity="0.4"/>
    <line x1="1200.3" y1="1861.2" x2="3391.7" y2="-330.2" stroke="#6ac897" stroke-width="2.2" stroke-opacity="0.4"/>
    <line x1="1224.3" y1="1861.2" x2="3415.7" y2="-330.2" stroke="#69c899" stroke-width="2.2" stroke-opacity="0.4"/>
    <line x1="1248.3" y1="1861.2" x2="3439.7" y2="-330.2" stroke="#68c89a" stroke-width="2.2" stroke-opacity="0.4"/>
    <line x1="1272.3" y1="1861.2" x2="3463.7" y2="-330.2" stroke="#67c99c" stroke-width="2.2" stroke-opacity="0.4"/>
    <line x1="1296.3" y1="1861.2" x2="3487.7" y2="-330.2" stroke="#66c99d" stroke-width="2.2" stroke-opacity="0.4"/>
    <line x1="1320.3" y1="1861.2" x2="3511.7" y2="-330.2" stroke="#65c99f" stroke-width="2.2" stroke-opacity="0.4"/>
    <line x1="1344.3" y1="1861.2" x2="3535.7" y2="-330.2" stroke="#64c9a1" stroke-width="2.2" stroke-opacity="0.4"/>
    <line x1="1368.3" y1="1861.2" x2="3559.7" y2="-330.2" stroke="#63c9a2" stroke-width="2.2" stroke-opacity="0.4"/>
    <line x1="1392.3" y1="1861.2" x2="3583.7" y2="-330.2" stroke="#62c9a4" stroke-width="2.2" stroke-opacity="0.4"/>
    <line x1="1416.3" y1="1861.2" x2="3607.7" y2="-330.2" stroke="#61c9a5" stroke-width="2.2" stroke-opacity="0.4"/>
    <line x1="1440.3" y1="1861.2" x2="3631.7" y2="-330.2" stroke="#60caa7" stroke-width="2.2" stroke-opacity="0.4"/>
    <line x1="1464.3" y1="1861.2" x2="3655.7" y2="-330.2" stroke="#5fcaa8" stroke-width="2.2" stroke-opacity="0.4"/>
    <line x1="1488.3" y1="1861.2" x2="3679.7" y2="-330.2" stroke="#5ecaaa" stroke-width="2.2" stroke-opacity="0.4"/>
    <line x1="1512.3" y1="1861.2" x2="3703.7" y2="-330.2" stroke="#5dcaab" stroke-width="2.2" stroke-opacity="0.4"/>
    <line x1="1536.3" y1="1861.2" x2="3727.7" y2="-330.2" stroke="#5ccaad" stroke-width="2.2" stroke-opacity="0.4"/>
    <line x1="1560.3" y1="1861.2" x2="3751.7" y2="-330.2" stroke="#5bcaae" stroke-width="2.2" stroke-opacity="0.4"/>
    <line x1="1584.3" y1="1861.2" x2="3775.7" y2="-330.2" stroke="#5acbb0" stroke-width="2.2" stroke-opacity="0.4"/>
    <line x1="1608.3" y1="1861.2" x2="3799.7" y2="-330.2" stroke="#59cbb1" stroke-width="2.2" stroke-opacity="0.4"/>
    <line x1="1632.3" y1="1861.2" x2="3823.7" y2="-330.2" stroke="#58cbb3" stroke-width="2.2" stroke-opacity="0.4"/>
    <line x1="1656.3" y1="1861.2" x2="3847.7" y2="-330.2" stroke="#57cbb4" stroke-width="2.2" stroke-opacity="0.4"/>
    <line x1="1680.3" y1="1861.2" x2="3871.7" y2="-330.2" stroke="#56cbb6" stroke-width="2.2" stroke-opacity="0.4"/>
    <line x1="1704.3" y1="1861.2" x2="3895.7" y2="-330.2" stroke="#55cbb7" stroke-width="2.2" stroke-opacity="0.4"/>
    <line x1="1728.3" y1="1861.2" x2="3919.7" y2="-330.2" stroke="#54cbb9" stroke-width="2.2" stroke-opacity="0.4"/>
    <line x1="1752.3" y1="1861.2" x2="3943.7" y2="-330.2" stroke="#53ccba" stroke-width="2.2" stroke-opacity="0.4"/>
    <line x1="1776.3" y1="1861.2" x2="3967.7" y2="-330.2" stroke="#52ccbc" stroke-width="2.2" stroke-opacity="0.4"/>
    <line x1="1800.3" y1="1861.2" x2="3991.7" y2="-330.2" stroke="#51ccbd" stroke-width="2.2" stroke-opacity="0.4"/>
    <line x1="1824.3" y1="1861.2" x2="4015.7" y2="-330.2" stroke="#50ccbf" stroke-width="2.2" stroke-opacity="0.4"/>
    <line x1="1848.3" y1="1861.2" x2="4039.7" y2="-330.2" stroke="#4fccc0" stroke-width="2.2" stroke-opacity="0.4"/>
    <line x1="1872.3" y1="1861.2" x2="4063.7" y2="-330.2" stroke="#4eccc2" stroke-width="2.2" stroke-opacity="0.4"/>
    <line x1="1896.3" y1="1861.2" x2="4087.7" y2="-330.2" stroke="#4ecdc4" stroke-width="2.2" stroke-opacity="0.4"/>
</g>
</svg>