<svg width="640" height="600" viewBox="0 0 640 600" fill="none" xmlns="http://www.w3.org/2000/svg">
<defs>
  <mask id="pinwheel-cool-bg-mask" maskUnits="userSpaceOnUse" x="0" y="0" width="640" height="600">
    <rect width="640" height="600" fill="black"/>
    <g transform="translate(53.28, 40.80) scale(0.8287435901862946)">
      <path d="M611.43 24.90 C611.43 61.35 604.24 97.44 590.29 131.11 C576.33 164.79 555.87 195.38 530.08 221.16 C504.29 246.93 473.67 267.37 439.97 281.32 C406.27 295.27 370.15 302.45 333.67 302.45 L333.67 24.90 L611.43 24.90 Z" stroke="white" stroke-width="38.6127" fill="none" stroke-linecap="butt" stroke-linejoin="miter" stroke-miterlimit="4"/>
      <path d="M32.24 24.90 C68.69 24.90 104.78 32.08 138.46 46.04 C172.13 60.00 202.73 80.46 228.50 106.25 C254.28 132.04 274.72 162.66 288.67 196.36 C302.62 230.06 309.80 266.18 309.80 302.65 L32.24 302.65 L32.24 24.90 Z" stroke="white" stroke-width="38.6127" fill="none" stroke-linecap="butt" stroke-linejoin="miter" stroke-miterlimit="4"/>
      <path d="M611.43 600.41 C574.98 600.41 538.89 593.23 505.22 579.28 C471.54 565.33 440.94 544.89 415.17 519.11 C389.40 493.34 368.95 462.75 355.00 429.07 C341.06 395.40 333.88 359.31 333.88 322.86 L611.43 322.86 L611.43 600.41 Z" stroke="white" stroke-width="38.6127" fill="none" stroke-linecap="butt" stroke-linejoin="miter" stroke-miterlimit="4"/>
      <path d="M32.24 600.61 C32.24 564.14 39.43 528.02 53.39 494.32 C67.35 460.62 87.81 430.00 113.60 404.21 C139.39 378.42 170.01 357.96 203.71 344.00 C237.41 330.04 273.52 322.86 310.00 322.86 L310.00 600.61 L32.24 600.61 Z" stroke="white" stroke-width="38.6127" fill="none" stroke-linecap="butt" stroke-linejoin="miter" stroke-miterlimit="4"/>
    </g>
  </mask>
</defs>
<g mask="url(#pinwheel-cool-bg-mask)">
    <line x1="-792.0" y1="700.0" x2="8.0" y2="-100.0" stroke="#5dd39e" stroke-width="2.2" stroke-opacity="0.4"/>
    <line x1="-780.0" y1="700.0" x2="20.0" y2="-100.0" stroke="#5ed39d" stroke-width="2.2" stroke-opacity="0.4"/>
    <line x1="-768.0" y1="700.0" x2="32.0" y2="-100.0" stroke="#60d39d" stroke-width="2.2" stroke-opacity="0.4"/>
    <line x1="-756.0" y1="700.0" x2="44.0" y2="-100.0" stroke="#61d49c" stroke-width="2.2" stroke-opacity="0.4"/>
    <line x1="-744.0" y1="700.0" x2="56.0" y2="-100.0" stroke="#63d49c" stroke-width="2.2" stroke-opacity="0.4"/>
    <line x1="-732.0" y1="700.0" x2="68.0" y2="-100.0" stroke="#65d49b" stroke-width="2.2" stroke-opacity="0.4"/>
    <line x1="-720.0" y1="700.0" x2="80.0" y2="-100.0" stroke="#66d59b" stroke-width="2.2" stroke-opacity="0.4"/>
    <line x1="-708.0" y1="700.0" x2="92.0" y2="-100.0" stroke="#68d59a" stroke-width="2.2" stroke-opacity="0.4"/>
    <line x1="-696.0" y1="700.0" x2="104.0" y2="-100.0" stroke="#69d59a" stroke-width="2.2" stroke-opacity="0.4"/>
    <line x1="-684.0" y1="700.0" x2="116.0" y2="-100.0" stroke="#6bd699" stroke-width="2.2" stroke-opacity="0.4"/>
    <line x1="-672.0" y1="700.0" x2="128.0" y2="-100.0" stroke="#6dd699" stroke-width="2.2" stroke-opacity="0.4"/>
    <line x1="-660.0" y1="700.0" x2="140.0" y2="-100.0" stroke="#6ed699" stroke-width="2.2" stroke-opacity="0.4"/>
    <line x1="-648.0" y1="700.0" x2="152.0" y2="-100.0" stroke="#70d798" stroke-width="2.2" stroke-opacity="0.4"/>
    <line x1="-636.0" y1="700.0" x2="164.0" y2="-100.0" stroke="#71d798" stroke-width="2.2" stroke-opacity="0.4"/>
    <line x1="-624.0" y1="700.0" x2="176.0" y2="-100.0" stroke="#73d797" stroke-width="2.2" stroke-opacity="0.4"/>
    <line x1="-612.0" y1="700.0" x2="188.0" y2="-100.0" stroke="#75d897" stroke-width="2.2" stroke-opacity="0.4"/>
    <line x1="-600.0" y1="700.0" x2="200.0" y2="-100.0" stroke="#76d896" stroke-width="2.2" stroke-opacity="0.4"/>
    <line x1="-588.0" y1="700.0" x2="212.0" y2="-100.0" stroke="#78d896" stroke-width="2.2" stroke-opacity="0.4"/>
    <line x1="-576.0" y1="700.0" x2="224.0" y2="-100.0" stroke="#7ad995" stroke-width="2.2" stroke-opacity="0.4"/>
    <line x1="-564.0" y1="700.0" x2="236.0" y2="-100.0" stroke="#7bd995" stroke-width="2.2" stroke-opacity="0.4"/>
    <line x1="-552.0" y1="700.0" x2="248.0" y2="-100.0" stroke="#7dd994" stroke-width="2.2" stroke-opacity="0.4"/>
    <line x1="-540.0" y1="700.0" x2="260.0" y2="-100.0" stroke="#7eda94" stroke-width="2.2" stroke-opacity="0.4"/>
    <line x1="-528.0" y1="700.0" x2="272.0" y2="-100.0" stroke="#80da94" stroke-width="2.2" stroke-opacity="0.4"/>
    <line x1="-516.0" y1="700.0" x2="284.0" y2="-100.0" stroke="#82da93" stroke-width="2.2" stroke-opacity="0.4"/>
    <line x1="-504.0" y1="700.0" x2="296.0" y2="-100.0" stroke="#83db93" stroke-width="2.2" stroke-opacity="0.4"/>
    <line x1="-492.0" y1="700.0" x2="308.0" y2="-100.0" stroke="#85db92" stroke-width="2.2" stroke-opacity="0.4"/>
    <line x1="-480.0" y1="700.0" x2="320.0" y2="-100.0" stroke="#86db92" stroke-width="2.2" stroke-opacity="0.4"/>
    <line x1="-468.0" y1="700.0" x2="332.0" y2="-100.0" stroke="#88dc91" stroke-width="2.2" stroke-opacity="0.4"/>
    <line x1="-456.0" y1="700.0" x2="344.0" y2="-100.0" stroke="#8adc91" stroke-width="2.2" stroke-opacity="0.4"/>
    <line x1="-444.0" y1="700.0" x2="356.0" y2="-100.0" stroke="#8bdc90" stroke-width="2.2" stroke-opacity="0.4"/>
    <line x1="-432.0" y1="700.0" x2="368.0" y2="-100.0" stroke="#8ddd90" stroke-width="2.2" stroke-opacity="0.4"/>
    <line x1="-420.0" y1="700.0" x2="380.0" y2="-100.0" stroke="#8fdd8f" stroke-width="2.2" stroke-opacity="0.4"/>
    <line x1="-408.0" y1="700.0" x2="392.0" y2="-100.0" stroke="#90dd8f" stroke-width="2.2" stroke-opacity="0.4"/>
    <line x1="-396.0" y1="700.0" x2="404.0" y2="-100.0" stroke="#92de8f" stroke-width="2.2" stroke-opacity="0.4"/>
    <line x1="-384.0" y1="700.0" x2="416.0" y2="-100.0" stroke="#93de8e" stroke-width="2.2" stroke-opacity="0.4"/>
    <line x1="-372.0" y1="700.0" x2="428.0" y2="-100.0" stroke="#95de8e" stroke-width="2.2" stroke-opacity="0.4"/>
    <line x1="-360.0" y1="700.0" x2="440.0" y2="-100.0" stroke="#97df8d" stroke-width="2.2" stroke-opacity="0.4"/>
    <line x1="-348.0" y1="700.0" x2="452.0" y2="-100.0" stroke="#98df8d" stroke-width="2.2" stroke-opacity="0.4"/>
    <line x1="-336.0" y1="700.0" x2="464.0" y2="-100.0" stroke="#9adf8c" stroke-width="2.2" stroke-opacity="0.4"/>
    <line x1="-324.0" y1="700.0" x2="476.0" y2="-100.0" stroke="#9be08c" stroke-width="2.2" stroke-opacity="0.4"/>
    <line x1="-312.0" y1="700.0" x2="488.0" y2="-100.0" stroke="#9de08b" stroke-width="2.2" stroke-opacity="0.4"/>
    <line x1="-300.0" y1="700.0" x2="500.0" y2="-100.0" stroke="#9fe08b" stroke-width="2.2" stroke-opacity="0.4"/>
    <line x1="-288.0" y1="700.0" x2="512.0" y2="-100.0" stroke="#a0e18a" stroke-width="2.2" stroke-opacity="0.4"/>
    <line x1="-276.0" y1="700.0" x2="524.0" y2="-100.0" stroke="#a2e18a" stroke-width="2.2" stroke-opacity="0.4"/>
    <line x1="-264.0" y1="700.0" x2="536.0" y2="-100.0" stroke="#a3e18a" stroke-width="2.2" stroke-opacity="0.4"/>
    <line x1="-252.0" y1="700.0" x2="548.0" y2="-100.0" stroke="#a5e289" stroke-width="2.2" stroke-opacity="0.4"/>
    <line x1="-240.0" y1="700.0" x2="560.0" y2="-100.0" stroke="#a7e289" stroke-width="2.2" stroke-opacity="0.4"/>
    <line x1="-228.0" y1="700.0" x2="572.0" y2="-100.0" stroke="#a8e288" stroke-width="2.2" stroke-opacity="0.4"/>
    <line x1="-216.0" y1="700.0" x2="584.0" y2="-100.0" stroke="#aae388" stroke-width="2.2" stroke-opacity="0.4"/>
    <line x1="-204.0" y1="700.0" x2="596.0" y2="-100.0" stroke="#ace387" stroke-width="2.2" stroke-opacity="0.4"/>
    <line x1="-192.0" y1="700.0" x2="608.0" y2="-100.0" stroke="#ade387" stroke-width="2.2" stroke-opacity="0.4"/>
    <line x1="-180.0" y1="700.0" x2="620.0" y2="-100.0" stroke="#afe486" stroke-width="2.2" stroke-opacity="0.4"/>
    <line x1="-168.0" y1="700.0" x2="632.0" y2="-100.0" stroke="#b0e486" stroke-width="2.2" stroke-opacity="0.4"/>
    <line x1="-156.0" y1="700.0" x2="644.0" y2="-100.0" stroke="#b2e485" stroke-width="2.2" stroke-opacity="0.4"/>
    <line x1="-144.0" y1="700.0" x2="656.0" y2="-100.0" stroke="#b4e585" stroke-width="2.2" stroke-opacity="0.4"/>
    <line x1="-132.0" y1="700.0" x2="668.0" y2="-100.0" stroke="#b5e585" stroke-width="2.2" stroke-opacity="0.4"/>
    <line x1="-120.0" y1="700.0" x2="680.0" y2="-100.0" stroke="#b7e584" stroke-width="2.2" stroke-opacity="0.4"/>
    <line x1="-108.0" y1="700.0" x2="692.0" y2="-100.0" stroke="#b8e684" stroke-width="2.2" stroke-opacity="0.4"/>
    <line x1="-96.0" y1="700.0" x2="704.0" y2="-100.0" stroke="#bae683" stroke-width="2.2" stroke-opacity="0.4"/>
    <line x1="-84.0" y1="700.0" x2="716.0" y2="-100.0" stroke="#bce683" stroke-width="2.2" stroke-opacity="0.4"/>
    <line x1="-72.0" y1="700.0" x2="728.0" y2="-100.0" stroke="#bde682" stroke-width="2.2" stroke-opacity="0.4"/>
    <line x1="-60.0" y1="700.0" x2="740.0" y2="-100.0" stroke="#bee682" stroke-width="2.2" stroke-opacity="0.4"/>
    <line x1="-48.0" y1="700.0" x2="752.0" y2="-100.0" stroke="#bfe682" stroke-width="2.2" stroke-opacity="0.4"/>
    <line x1="-36.0" y1="700.0" x2="764.0" y2="-100.0" stroke="#c0e681" stroke-width="2.2" stroke-opacity="0.4"/>
    <line x1="-24.0" y1="700.0" x2="776.0" y2="-100.0" stroke="#c1e681" stroke-width="2.2" stroke-opacity="0.4"/>
    <line x1="-12.0" y1="700.0" x2="788.0" y2="-100.0" stroke="#c2e581" stroke-width="2.2" stroke-opacity="0.4"/>
    <line x1="-0.0" y1="700.0" x2="800.0" y2="-100.0" stroke="#c3e580" stroke-width="2.2" stroke-opacity="0.4"/>
    <line x1="12.0" y1="700.0" x2="812.0" y2="-100.0" stroke="#c4e580" stroke-width="2.2" stroke-opacity="0.4"/>
    <line x1="24.0" y1="700.0" x2="824.0" y2="-100.0" stroke="#c5e580" stroke-width="2.2" stroke-opacity="0.4"/>
    <line x1="36.0" y1="700.0" x2="836.0" y2="-100.0" stroke="#c6e57f" stroke-width="2.2" stroke-opacity="0.4"/>
    <line x1="48.0" y1="700.0" x2="848.0" y2="-100.0" stroke="#c7e57f" stroke-width="2.2" stroke-opacity="0.4"/>
    <line x1="60.0" y1="700.0" x2="860.0" y2="-100.0" stroke="#c8e47f" stroke-width="2.2" stroke-opacity="0.4"/>
    <line x1="72.0" y1="700.0" x2="872.0" y2="-100.0" stroke="#c9e47e" stroke-width="2.2" stroke-opacity="0.4"/>
    <line x1="84.0" y1="700.0" x2="884.0" y2="-100.0" stroke="#cae47e" stroke-width="2.2" stroke-opacity="0.4"/>
    <line x1="96.0" y1="700.0" x2="896.0" y2="-100.0" stroke="#cbe47e" stroke-width="2.2" stroke-opacity="0.4"/>
    <line x1="108.0" y1="700.0" x2="908.0" y2="-100.0" stroke="#cce47d" stroke-width="2.2" stroke-opacity="0.4"/>
    <line x1="120.0" y1="700.0" x2="920.0" y2="-100.0" stroke="#cde37d" stroke-width="2.2" stroke-opacity="0.4"/>
    <line x1="132.0" y1="700.0" x2="932.0" y2="-100.0" stroke="#cee37d" stroke-width="2.2" stroke-opacity="0.4"/>
    <line x1="144.0" y1="700.0" x2="944.0" y2="-100.0" stroke="#cfe37c" stroke-width="2.2" stroke-opacity="0.4"/>
    <line x1="156.0" y1="700.0" x2="956.0" y2="-100.0" stroke="#d0e37c" stroke-width="2.2" stroke-opacity="0.4"/>
    <line x1="168.0" y1="700.0" x2="968.0" y2="-100.0" stroke="#d0e37c" stroke-width="2.2" stroke-opacity="0.4"/>
    <line x1="180.0" y1="700.0" x2="980.0" y2="-100.0" stroke="#d1e37b" stroke-width="2.2" stroke-opacity="0.4"/>
    <line x1="192.0" y1="700.0" x2="992.0" y2="-100.0" stroke="#d2e27b" stroke-width="2.2" stroke-opacity="0.4"/>
    <line x1="204.0" y1="700.0" x2="1004.0" y2="-100.0" stroke="#d3e27b" stroke-width="2.2" stroke-opacity="0.4"/>
    <line x1="216.0" y1="700.0" x2="1016.0" y2="-100.0" stroke="#d4e27a" stroke-width="2.2" stroke-opacity="0.4"/>
    <line x1="228.0" y1="700.0" x2="1028.0" y2="-100.0" stroke="#d5e27a" stroke-width="2.2" stroke-opacity="0.4"/>
    <line x1="240.0" y1="700.0" x2="1040.0" y2="-100.0" stroke="#d6e27a" stroke-width="2.2" stroke-opacity="0.4"/>
    <line x1="252.0" y1="700.0" x2="1052.0" y2="-100.0" stroke="#d7e179" stroke-width="2.2" stroke-opacity="0.4"/>
    <line x1="264.0" y1="700.0" x2="1064.0" y2="-100.0" stroke="#d8e179" stroke-width="2.2" stroke-opacity="0.4"/>
    <line x1="276.0" y1="700.0" x2="1076.0" y2="-100.0" stroke="#d9e179" stroke-width="2.2" stroke-opacity="0.4"/>
    <line x1="288.0" y1="700.0" x2="1088.0" y2="-100.0" stroke="#dae178" stroke-width="2.2" stroke-opacity="0.4"/>
    <line x1="300.0" y1="700.0" x2="1100.0" y2="-100.0" stroke="#dbe178" stroke-width="2.2" stroke-opacity="0.4"/>
    <line x1="312.0" y1="700.0" x2="1112.0" y2="-100.0" stroke="#dce078" stroke-width="2.2" stroke-opacity="0.4"/>
    <line x1="324.0" y1="700.0" x2="1124.0" y2="-100.0" stroke="#dde077" stroke-width="2.2" stroke-opacity="0.4"/>
    <line x1="336.0" y1="700.0" x2="1136.0" y2="-100.0" stroke="#dee077" stroke-width="2.2" stroke-opacity="0.4"/>
    <line x1="348.0" y1="700.0" x2="1148.0" y2="-100.0" stroke="#dfe077" stroke-width="2.2" stroke-opacity="0.4"/>
    <line x1="360.0" y1="700.0" x2="1160.0" y2="-100.0" stroke="#e0e076" stroke-width="2.2" stroke-opacity="0.4"/>
    <line x1="372.0" y1="700.0" x2="1172.0" y2="-100.0" stroke="#e1e076" stroke-width="2.2" stroke-opacity="0.4"/>
    <line x1="384.0" y1="700.0" x2="1184.0" y2="-100.0" stroke="#e2df76" stroke-width="2.2" stroke-opacity="0.4"/>
    <line x1="396.0" y1="700.0" x2="1196.0" y2="-100.0" stroke="#e3df75" stroke-width="2.2" stroke-opacity="0.4"/>
    <line x1="408.0" y1="700.0" x2="1208.0" y2="-100.0" stroke="#e4df75" stroke-width="2.2" stroke-opacity="0.4"/>
    <line x1="420.0" y1="700.0" x2="1220.0" y2="-100.0" stroke="#e5df75" stroke-width="2.2" stroke-opacity="0.4"/>
    <line x1="432.0" y1="700.0" x2="1232.0" y2="-100.0" stroke="#e6df74" stroke-width="2.2" stroke-opacity="0.4"/>
    <line x1="444.0" y1="700.0" x2="1244.0" y2="-100.0" stroke="#e7de74" stroke-width="2.2" stroke-opacity="0.4"/>
    <line x1="456.0" y1="700.0" x2="1256.0" y2="-100.0" stroke="#e8de74" stroke-width="2.2" stroke-opacity="0.4"/>
    <line x1="468.0" y1="700.0" x2="1268.0" y2="-100.0" stroke="#e9de73" stroke-width="2.2" stroke-opacity="0.4"/>
    <line x1="480.0" y1="700.0" x2="1280.0" y2="-100.0" stroke="#eade73" stroke-width="2.2" stroke-opacity="0.4"/>
    <line x1="492.0" y1="700.0" x2="1292.0" y2="-100.0" stroke="#ebde73" stroke-width="2.2" stroke-opacity="0.4"/>
    <line x1="504.0" y1="700.0" x2="1304.0" y2="-100.0" stroke="#ecde72" stroke-width="2.2" stroke-opacity="0.4"/>
    <line x1="516.0" y1="700.0" x2="1316.0" y2="-100.0" stroke="#eddd72" stroke-width="2.2" stroke-opacity="0.4"/>
    <line x1="528.0" y1="700.0" x2="1328.0" y2="-100.0" stroke="#eedd72" stroke-width="2.2" stroke-opacity="0.4"/>
    <line x1="540.0" y1="700.0" x2="1340.0" y2="-100.0" stroke="#efdd71" stroke-width="2.2" stroke-opacity="0.4"/>
    <line x1="552.0" y1="700.0" x2="1352.0" y2="-100.0" stroke="#f0dd71" stroke-width="2.2" stroke-opacity="0.4"/>
    <line x1="564.0" y1="700.0" x2="1364.0" y2="-100.0" stroke="#f1dd71" stroke-width="2.2" stroke-opacity="0.4"/>
    <line x1="576.0" y1="700.0" x2="1376.0" y2="-100.0" stroke="#f2dc70" stroke-width="2.2" stroke-opacity="0.4"/>
    <line x1="588.0" y1="700.0" x2="1388.0" y2="-100.0" stroke="#f3dc70" stroke-width="2.2" stroke-opacity="0.4"/>
    <line x1="600.0" y1="700.0" x2="1400.0" y2="-100.0" stroke="#f4dc70" stroke-width="2.2" stroke-opacity="0.4"/>
    <line x1="612.0" y1="700.0" x2="1412.0" y2="-100.0" stroke="#f5dc6f" stroke-width="2.2" stroke-opacity="0.4"/>
    <line x1="624.0" y1="700.0" x2="1424.0" y2="-100.0" stroke="#f6dc6f" stroke-width="2.2" stroke-opacity="0.4"/>
    <line x1="636.0" y1="700.0" x2="1436.0" y2="-100.0" stroke="#f7dc6f" stroke-width="2.2" stroke-opacity="0.4"/>
</g>
</svg>
